SplineFontDB: 3.0
FontName: BukanBinary
FullName: BukanBinary
FamilyName: BukanBinary
Weight: Regular
Copyright: Copyright (c) 2015 Aydi Rainkarnichi, http://rainkarnichi.my.id @aydiriku. BukanBinary tapi Binary, based on ASCII-Binary Code.
Version: 001
ItalicAngle: 0
UnderlinePosition: 0
UnderlineWidth: 0
Ascent: 800
Descent: 200
InvalidEm: 0
LayerCount: 2
Layer: 0 0 "Back" 1
Layer: 1 0 "Fore" 0
HasVMetrics: 1
XUID: [1021 719 330763385 19224]
FSType: 0
OS2Version: 0
OS2_WeightWidthSlopeOnly: 0
OS2_UseTypoMetrics: 0
CreationTime: 1431685442
ModificationTime: 1432517087
PfmFamily: 81
TTFWeight: 400
TTFWidth: 5
LineGap: 92
VLineGap: 92
OS2TypoAscent: 0
OS2TypoAOffset: 1
OS2TypoDescent: 0
OS2TypoDOffset: 1
OS2TypoLinegap: 92
OS2WinAscent: 0
OS2WinAOffset: 1
OS2WinDescent: 0
OS2WinDOffset: 1
HheadAscent: 0
HheadAOffset: 1
HheadDescent: 0
HheadDOffset: 1
OS2Vendor: 'PfEd'
MarkAttachClasses: 1
DEI: 91125

StartChar: a
Encoding: 97 97 1
Width: 2200
VWidth: 90
Flags: HW
LayerCount: 2
Back
Fore
SplineSet
0 200 m 1
 200 200 l 1
 200 -0 l 1
 0 -0 l 1
 0 200 l 1
300 200 m 1
 400 200 l 1
 400 -0 l 1
 300 -0 l 1
 300 200 l 1
500 200 m 1
 600 200 l 1
 600 -0 l 1
 500 -0 l 1
 500 200 l 1
700 200 m 1
 900 200 l 1
 900 -0 l 1
 700 -0 l 1
 700 200 l 1
1000 200 m 1
 1200 200 l 1
 1200 -0 l 1
 1000 -0 l 1
 1000 200 l 1
1300 200 m 1
 1500 200 l 1
 1500 -0 l 1
 1300 -0 l 1
 1300 200 l 1
1600 200 m 1
 1800 200 l 1
 1800 -0 l 1
 1600 -0 l 1
 1600 200 l 1
1900 200 m 1
 2000 200 l 1
 2000 -0 l 1
 1900 -0 l 1
 1900 200 l 1
EndSplineSet
Validated: 1
EndChar

StartChar: b
Encoding: 98 98 2
Width: 2200
VWidth: 90
Flags: HW
LayerCount: 2
Back
Fore
SplineSet
0 200 m 1
 200 200 l 1
 200 -0 l 1
 0 -0 l 1
 0 200 l 1
300 200 m 1
 400 200 l 1
 400 -0 l 1
 300 -0 l 1
 300 200 l 1
500 200 m 1
 600 200 l 1
 600 -0 l 1
 500 -0 l 1
 500 200 l 1
700 200 m 1
 900 200 l 1
 900 -0 l 1
 700 -0 l 1
 700 200 l 1
1000 200 m 1
 1200 200 l 1
 1200 -0 l 1
 1000 -0 l 1
 1000 200 l 1
1300 200 m 1
 1500 200 l 1
 1500 -0 l 1
 1300 -0 l 1
 1300 200 l 1
1600 200 m 1
 1700 200 l 1
 1700 -0 l 1
 1600 -0 l 1
 1600 200 l 1
1800 200 m 1
 2000 200 l 1
 2000 -0 l 1
 1800 -0 l 1
 1800 200 l 1
EndSplineSet
Validated: 1
EndChar

StartChar: c
Encoding: 99 99 3
Width: 2100
VWidth: 90
Flags: HW
LayerCount: 2
Back
Fore
SplineSet
0 200 m 1
 200 200 l 1
 200 -0 l 1
 0 -0 l 1
 0 200 l 1
300 200 m 1
 400 200 l 1
 400 -0 l 1
 300 -0 l 1
 300 200 l 1
500 200 m 1
 600 200 l 1
 600 -0 l 1
 500 -0 l 1
 500 200 l 1
700 200 m 1
 900 200 l 1
 900 -0 l 1
 700 -0 l 1
 700 200 l 1
1000 200 m 1
 1200 200 l 1
 1200 -0 l 1
 1000 -0 l 1
 1000 200 l 1
1300 200 m 1
 1500 200 l 1
 1500 -0 l 1
 1300 -0 l 1
 1300 200 l 1
1600 200 m 1
 1700 200 l 1
 1700 -0 l 1
 1600 -0 l 1
 1600 200 l 1
1800 200 m 1
 1900 200 l 1
 1900 -0 l 1
 1800 -0 l 1
 1800 200 l 1
EndSplineSet
Validated: 1
EndChar

StartChar: d
Encoding: 100 100 4
Width: 2200
VWidth: 90
Flags: HW
LayerCount: 2
Back
Fore
SplineSet
0 200 m 1
 200 200 l 1
 200 -0 l 1
 0 -0 l 1
 0 200 l 1
300 200 m 1
 400 200 l 1
 400 -0 l 1
 300 -0 l 1
 300 200 l 1
500 200 m 1
 600 200 l 1
 600 -0 l 1
 500 -0 l 1
 500 200 l 1
700 200 m 1
 900 200 l 1
 900 -0 l 1
 700 -0 l 1
 700 200 l 1
1000 200 m 1
 1200 200 l 1
 1200 -0 l 1
 1000 -0 l 1
 1000 200 l 1
1300 200 m 1
 1400 200 l 1
 1400 -0 l 1
 1300 -0 l 1
 1300 200 l 1
1500 200 m 1
 1700 200 l 1
 1700 -0 l 1
 1500 -0 l 1
 1500 200 l 1
1800 200 m 1
 2000 200 l 1
 2000 -0 l 1
 1800 -0 l 1
 1800 200 l 1
EndSplineSet
Validated: 1
EndChar

StartChar: e
Encoding: 101 101 5
Width: 2100
VWidth: 90
Flags: HW
LayerCount: 2
Back
Fore
SplineSet
0 200 m 1
 200 200 l 1
 200 -0 l 1
 0 -0 l 1
 0 200 l 1
300 200 m 1
 400 200 l 1
 400 -0 l 1
 300 -0 l 1
 300 200 l 1
500 200 m 1
 600 200 l 1
 600 -0 l 1
 500 -0 l 1
 500 200 l 1
700 200 m 1
 900 200 l 1
 900 -0 l 1
 700 -0 l 1
 700 200 l 1
1000 200 m 1
 1200 200 l 1
 1200 -0 l 1
 1000 -0 l 1
 1000 200 l 1
1300 200 m 1
 1400 200 l 1
 1400 -0 l 1
 1300 -0 l 1
 1300 200 l 1
1500 200 m 1
 1700 200 l 1
 1700 -0 l 1
 1500 -0 l 1
 1500 200 l 1
1800 200 m 1
 1900 200 l 1
 1900 -0 l 1
 1800 -0 l 1
 1800 200 l 1
EndSplineSet
Validated: 1
EndChar

StartChar: f
Encoding: 102 102 6
Width: 2100
VWidth: 90
Flags: HW
LayerCount: 2
Back
Fore
SplineSet
0 200 m 1
 200 200 l 1
 200 -0 l 1
 0 -0 l 1
 0 200 l 1
300 200 m 1
 400 200 l 1
 400 -0 l 1
 300 -0 l 1
 300 200 l 1
500 200 m 1
 600 200 l 1
 600 -0 l 1
 500 -0 l 1
 500 200 l 1
700 200 m 1
 900 200 l 1
 900 -0 l 1
 700 -0 l 1
 700 200 l 1
1000 200 m 1
 1200 200 l 1
 1200 -0 l 1
 1000 -0 l 1
 1000 200 l 1
1300 200 m 1
 1400 200 l 1
 1400 -0 l 1
 1300 -0 l 1
 1300 200 l 1
1700 200 m 1
 1900 200 l 1
 1900 0 l 1
 1700 0 l 1
 1700 200 l 1
1500 200 m 1
 1600 200 l 1
 1600 -0 l 1
 1500 -0 l 1
 1500 200 l 1
EndSplineSet
Validated: 1
EndChar

StartChar: h
Encoding: 104 104 7
Width: 2200
VWidth: 90
Flags: HW
LayerCount: 2
Back
Fore
SplineSet
0 200 m 1
 200 200 l 1
 200 -0 l 1
 0 -0 l 1
 0 200 l 1
300 200 m 1
 400 200 l 1
 400 -0 l 1
 300 -0 l 1
 300 200 l 1
500 200 m 1
 600 200 l 1
 600 -0 l 1
 500 -0 l 1
 500 200 l 1
700 200 m 1
 900 200 l 1
 900 -0 l 1
 700 -0 l 1
 700 200 l 1
1800 200 m 1
 2000 200 l 1
 2000 -0 l 1
 1800 -0 l 1
 1800 200 l 1
1000 200 m 1
 1100 200 l 1
 1100 -0 l 1
 1000 -0 l 1
 1000 200 l 1
1200 200 m 1
 1400 200 l 1
 1400 -0 l 1
 1200 -0 l 1
 1200 200 l 1
1500 200 m 1
 1700 200 l 1
 1700 -0 l 1
 1500 -0 l 1
 1500 200 l 1
EndSplineSet
Validated: 1
EndChar

StartChar: i
Encoding: 105 105 8
Width: 2100
VWidth: 90
Flags: HW
LayerCount: 2
Back
Fore
SplineSet
0 200 m 1
 200 200 l 1
 200 -0 l 1
 0 -0 l 1
 0 200 l 1
300 200 m 1
 400 200 l 1
 400 -0 l 1
 300 -0 l 1
 300 200 l 1
500 200 m 1
 600 200 l 1
 600 -0 l 1
 500 -0 l 1
 500 200 l 1
700 200 m 1
 900 200 l 1
 900 -0 l 1
 700 -0 l 1
 700 200 l 1
1000 200 m 1
 1100 200 l 1
 1100 -0 l 1
 1000 -0 l 1
 1000 200 l 1
1200 200 m 1
 1400 200 l 1
 1400 -0 l 1
 1200 -0 l 1
 1200 200 l 1
1500 200 m 1
 1700 200 l 1
 1700 -0 l 1
 1500 -0 l 1
 1500 200 l 1
1800 200 m 1
 1900 200 l 1
 1900 0 l 1
 1800 0 l 1
 1800 200 l 1
EndSplineSet
Validated: 1
EndChar

StartChar: j
Encoding: 106 106 9
Width: 2100
VWidth: 90
Flags: HW
LayerCount: 2
Back
Fore
SplineSet
0 200 m 1
 200 200 l 1
 200 -0 l 1
 0 -0 l 1
 0 200 l 1
300 200 m 1
 400 200 l 1
 400 -0 l 1
 300 -0 l 1
 300 200 l 1
500 200 m 1
 600 200 l 1
 600 -0 l 1
 500 -0 l 1
 500 200 l 1
700 200 m 1
 900 200 l 1
 900 -0 l 1
 700 -0 l 1
 700 200 l 1
1000 200 m 1
 1100 200 l 1
 1100 -0 l 1
 1000 -0 l 1
 1000 200 l 1
1200 200 m 1
 1400 200 l 1
 1400 -0 l 1
 1200 -0 l 1
 1200 200 l 1
1700 200 m 1
 1900 200 l 1
 1900 0 l 1
 1700 0 l 1
 1700 200 l 1
1500 200 m 1
 1600 200 l 1
 1600 0 l 1
 1500 0 l 1
 1500 200 l 1
EndSplineSet
Validated: 1
EndChar

StartChar: k
Encoding: 107 107 10
Width: 2000
VWidth: 90
Flags: HW
LayerCount: 2
Back
Fore
SplineSet
0 200 m 1
 200 200 l 1
 200 -0 l 1
 0 -0 l 1
 0 200 l 1
300 200 m 1
 400 200 l 1
 400 -0 l 1
 300 -0 l 1
 300 200 l 1
500 200 m 1
 600 200 l 1
 600 -0 l 1
 500 -0 l 1
 500 200 l 1
700 200 m 1
 900 200 l 1
 900 -0 l 1
 700 -0 l 1
 700 200 l 1
1000 200 m 1
 1100 200 l 1
 1100 -0 l 1
 1000 -0 l 1
 1000 200 l 1
1200 200 m 1
 1400 200 l 1
 1400 -0 l 1
 1200 -0 l 1
 1200 200 l 1
1500 200 m 1
 1600 200 l 1
 1600 0 l 1
 1500 0 l 1
 1500 200 l 1
1700 200 m 1
 1800 200 l 1
 1800 -0 l 1
 1700 -0 l 1
 1700 200 l 1
EndSplineSet
Validated: 1
EndChar

StartChar: l
Encoding: 108 108 11
Width: 2100
VWidth: 90
Flags: HW
LayerCount: 2
Back
Fore
SplineSet
0 200 m 1
 200 200 l 1
 200 -0 l 1
 0 -0 l 1
 0 200 l 1
300 200 m 1
 400 200 l 1
 400 -0 l 1
 300 -0 l 1
 300 200 l 1
500 200 m 1
 600 200 l 1
 600 -0 l 1
 500 -0 l 1
 500 200 l 1
700 200 m 1
 900 200 l 1
 900 -0 l 1
 700 -0 l 1
 700 200 l 1
1000 200 m 1
 1100 200 l 1
 1100 -0 l 1
 1000 -0 l 1
 1000 200 l 1
1400 200 m 1
 1600 200 l 1
 1600 -0 l 1
 1400 -0 l 1
 1400 200 l 1
1200 200 m 1
 1300 200 l 1
 1300 -0 l 1
 1200 -0 l 1
 1200 200 l 1
1700 200 m 1
 1900 200 l 1
 1900 -0 l 1
 1700 -0 l 1
 1700 200 l 1
EndSplineSet
Validated: 1
EndChar

StartChar: m
Encoding: 109 109 12
Width: 2000
VWidth: 90
Flags: W
HStem: -0 21G<0 200 300 400 500 600 700 900 1000 1100 1200 1300 1400 1600 1700 1800> -0 21G<0 200 300 400 500 600 700 900 1000 1100 1200 1300 1400 1600 1700 1800> 180 20G<0 200 300 400 500 600 700 900 1000 1100 1200 1300 1400 1600 1700 1800> 180 20G<0 200 300 400 500 600 700 900 1000 1100 1200 1300 1400 1600 1700 1800>
VStem: 0 200<0 200> 300 100<0 200> 500 100<0 200> 700 200<0 200> 1000 100<0 200> 1200 100<0 200> 1400 200<0 200> 1700 100<0 200>
LayerCount: 2
Back
Fore
SplineSet
0 200 m 1xaff0
 200 200 l 1
 200 -0 l 1
 0 -0 l 1
 0 200 l 1xaff0
300 200 m 1
 400 200 l 1
 400 -0 l 1
 300 -0 l 1
 300 200 l 1
500 200 m 1
 600 200 l 1
 600 -0 l 1
 500 -0 l 1
 500 200 l 1
700 200 m 1
 900 200 l 1
 900 -0 l 1
 700 -0 l 1
 700 200 l 1
1000 200 m 1
 1100 200 l 1
 1100 -0 l 1
 1000 -0 l 1
 1000 200 l 1
1400 200 m 1
 1600 200 l 1
 1600 -0 l 1
 1400 -0 l 1
 1400 200 l 1
1200 200 m 1
 1300 200 l 1
 1300 -0 l 1
 1200 -0 l 1
 1200 200 l 1
1700 200 m 1
 1800 200 l 1
 1800 -0 l 1
 1700 -0 l 1
 1700 200 l 1
EndSplineSet
Validated: 1
EndChar

StartChar: n
Encoding: 110 110 13
Width: 2000
VWidth: 90
Flags: HW
LayerCount: 2
Back
Fore
SplineSet
0 200 m 1
 200 200 l 1
 200 -0 l 1
 0 -0 l 1
 0 200 l 1
300 200 m 1
 400 200 l 1
 400 -0 l 1
 300 -0 l 1
 300 200 l 1
500 200 m 1
 600 200 l 1
 600 -0 l 1
 500 -0 l 1
 500 200 l 1
700 200 m 1
 900 200 l 1
 900 -0 l 1
 700 -0 l 1
 700 200 l 1
1000 200 m 1
 1100 200 l 1
 1100 -0 l 1
 1000 -0 l 1
 1000 200 l 1
1600 200 m 1
 1800 200 l 1
 1800 -0 l 1
 1600 -0 l 1
 1600 200 l 1
1200 200 m 1
 1300 200 l 1
 1300 -0 l 1
 1200 -0 l 1
 1200 200 l 1
1400 200 m 1
 1500 200 l 1
 1500 -0 l 1
 1400 -0 l 1
 1400 200 l 1
EndSplineSet
Validated: 1
EndChar

StartChar: o
Encoding: 111 111 14
Width: 1900
VWidth: 90
Flags: HW
LayerCount: 2
Back
Fore
SplineSet
0 200 m 1
 200 200 l 1
 200 -0 l 1
 0 -0 l 1
 0 200 l 1
300 200 m 1
 400 200 l 1
 400 -0 l 1
 300 -0 l 1
 300 200 l 1
500 200 m 1
 600 200 l 1
 600 -0 l 1
 500 -0 l 1
 500 200 l 1
700 200 m 1
 900 200 l 1
 900 -0 l 1
 700 -0 l 1
 700 200 l 1
1000 200 m 1
 1100 200 l 1
 1100 -0 l 1
 1000 -0 l 1
 1000 200 l 1
1200 200 m 1
 1300 200 l 1
 1300 -0 l 1
 1200 -0 l 1
 1200 200 l 1
1400 200 m 1
 1500 200 l 1
 1500 -0 l 1
 1400 -0 l 1
 1400 200 l 1
1600 200 m 1
 1700 200 l 1
 1700 -0 l 1
 1600 -0 l 1
 1600 200 l 1
EndSplineSet
Validated: 1
EndChar

StartChar: p
Encoding: 112 112 15
Width: 2200
VWidth: 90
Flags: HW
LayerCount: 2
Back
Fore
SplineSet
0 200 m 1
 200 200 l 1
 200 -0 l 1
 0 -0 l 1
 0 200 l 1
300 200 m 1
 400 200 l 1
 400 -0 l 1
 300 -0 l 1
 300 200 l 1
500 200 m 1
 600 200 l 1
 600 -0 l 1
 500 -0 l 1
 500 200 l 1
700 200 m 1
 800 200 l 1
 800 -0 l 1
 700 -0 l 1
 700 200 l 1
900 200 m 1
 1100 200 l 1
 1100 -0 l 1
 900 -0 l 1
 900 200 l 1
1200 200 m 1
 1400 200 l 1
 1400 -0 l 1
 1200 -0 l 1
 1200 200 l 1
1500 200 m 1
 1700 200 l 1
 1700 -0 l 1
 1500 -0 l 1
 1500 200 l 1
1800 200 m 1
 2000 200 l 1
 2000 -0 l 1
 1800 -0 l 1
 1800 200 l 1
EndSplineSet
Validated: 1
EndChar

StartChar: q
Encoding: 113 113 16
Width: 2100
VWidth: 90
Flags: HW
LayerCount: 2
Back
Fore
SplineSet
0 200 m 1
 200 200 l 1
 200 -0 l 1
 0 -0 l 1
 0 200 l 1
300 200 m 1
 400 200 l 1
 400 -0 l 1
 300 -0 l 1
 300 200 l 1
500 200 m 1
 600 200 l 1
 600 -0 l 1
 500 -0 l 1
 500 200 l 1
700 200 m 1
 800 200 l 1
 800 -0 l 1
 700 -0 l 1
 700 200 l 1
900 200 m 1
 1100 200 l 1
 1100 -0 l 1
 900 -0 l 1
 900 200 l 1
1200 200 m 1
 1400 200 l 1
 1400 -0 l 1
 1200 -0 l 1
 1200 200 l 1
1500 200 m 1
 1700 200 l 1
 1700 -0 l 1
 1500 -0 l 1
 1500 200 l 1
1800 200 m 1
 1900 200 l 1
 1900 -0 l 1
 1800 -0 l 1
 1800 200 l 1
EndSplineSet
Validated: 1
EndChar

StartChar: r
Encoding: 114 114 17
Width: 2100
VWidth: 90
Flags: HW
LayerCount: 2
Back
Fore
SplineSet
0 200 m 1
 200 200 l 1
 200 -0 l 1
 0 -0 l 1
 0 200 l 1
300 200 m 1
 400 200 l 1
 400 -0 l 1
 300 -0 l 1
 300 200 l 1
500 200 m 1
 600 200 l 1
 600 -0 l 1
 500 -0 l 1
 500 200 l 1
700 200 m 1
 800 200 l 1
 800 -0 l 1
 700 -0 l 1
 700 200 l 1
900 200 m 1
 1100 200 l 1
 1100 -0 l 1
 900 -0 l 1
 900 200 l 1
1200 200 m 1
 1400 200 l 1
 1400 -0 l 1
 1200 -0 l 1
 1200 200 l 1
1700 200 m 1
 1900 200 l 1
 1900 -0 l 1
 1700 -0 l 1
 1700 200 l 1
1500 200 m 1
 1600 200 l 1
 1600 -0 l 1
 1500 -0 l 1
 1500 200 l 1
EndSplineSet
Validated: 1
EndChar

StartChar: s
Encoding: 115 115 18
Width: 2000
VWidth: 90
Flags: HW
LayerCount: 2
Back
Fore
SplineSet
0 200 m 1
 200 200 l 1
 200 -0 l 1
 0 -0 l 1
 0 200 l 1
300 200 m 1
 400 200 l 1
 400 -0 l 1
 300 -0 l 1
 300 200 l 1
500 200 m 1
 600 200 l 1
 600 -0 l 1
 500 -0 l 1
 500 200 l 1
700 200 m 1
 800 200 l 1
 800 -0 l 1
 700 -0 l 1
 700 200 l 1
900 200 m 1
 1100 200 l 1
 1100 -0 l 1
 900 -0 l 1
 900 200 l 1
1200 200 m 1
 1400 200 l 1
 1400 -0 l 1
 1200 -0 l 1
 1200 200 l 1
1500 200 m 1
 1600 200 l 1
 1600 -0 l 1
 1500 -0 l 1
 1500 200 l 1
1700 200 m 1
 1800 200 l 1
 1800 -0 l 1
 1700 -0 l 1
 1700 200 l 1
EndSplineSet
Validated: 1
EndChar

StartChar: t
Encoding: 116 116 19
Width: 2100
VWidth: 90
Flags: HW
LayerCount: 2
Back
Fore
SplineSet
0 200 m 1
 200 200 l 1
 200 -0 l 1
 0 -0 l 1
 0 200 l 1
300 200 m 1
 400 200 l 1
 400 -0 l 1
 300 -0 l 1
 300 200 l 1
500 200 m 1
 600 200 l 1
 600 -0 l 1
 500 -0 l 1
 500 200 l 1
700 200 m 1
 800 200 l 1
 800 -0 l 1
 700 -0 l 1
 700 200 l 1
900 200 m 1
 1100 200 l 1
 1100 -0 l 1
 900 -0 l 1
 900 200 l 1
1400 200 m 1
 1600 200 l 1
 1600 -0 l 1
 1400 -0 l 1
 1400 200 l 1
1700 200 m 1
 1900 200 l 1
 1900 -0 l 1
 1700 -0 l 1
 1700 200 l 1
1200 200 m 1
 1300 200 l 1
 1300 -0 l 1
 1200 -0 l 1
 1200 200 l 1
EndSplineSet
Validated: 1
EndChar

StartChar: u
Encoding: 117 117 20
Width: 2000
VWidth: 90
Flags: HW
LayerCount: 2
Back
Fore
SplineSet
0 200 m 1
 200 200 l 1
 200 -0 l 1
 0 -0 l 1
 0 200 l 1
300 200 m 1
 400 200 l 1
 400 -0 l 1
 300 -0 l 1
 300 200 l 1
500 200 m 1
 600 200 l 1
 600 -0 l 1
 500 -0 l 1
 500 200 l 1
700 200 m 1
 800 200 l 1
 800 -0 l 1
 700 -0 l 1
 700 200 l 1
900 200 m 1
 1100 200 l 1
 1100 -0 l 1
 900 -0 l 1
 900 200 l 1
1400 200 m 1
 1600 200 l 1
 1600 -0 l 1
 1400 -0 l 1
 1400 200 l 1
1200 200 m 1
 1300 200 l 1
 1300 -0 l 1
 1200 -0 l 1
 1200 200 l 1
1700 200 m 1
 1800 200 l 1
 1800 -0 l 1
 1700 -0 l 1
 1700 200 l 1
EndSplineSet
Validated: 1
EndChar

StartChar: v
Encoding: 118 118 21
Width: 2000
VWidth: 90
Flags: HW
LayerCount: 2
Back
Fore
SplineSet
0 200 m 1
 200 200 l 1
 200 -0 l 1
 0 -0 l 1
 0 200 l 1
300 200 m 1
 400 200 l 1
 400 -0 l 1
 300 -0 l 1
 300 200 l 1
500 200 m 1
 600 200 l 1
 600 -0 l 1
 500 -0 l 1
 500 200 l 1
700 200 m 1
 800 200 l 1
 800 -0 l 1
 700 -0 l 1
 700 200 l 1
900 200 m 1
 1100 200 l 1
 1100 -0 l 1
 900 -0 l 1
 900 200 l 1
1600 200 m 1
 1800 200 l 1
 1800 -0 l 1
 1600 -0 l 1
 1600 200 l 1
1200 200 m 1
 1300 200 l 1
 1300 -0 l 1
 1200 -0 l 1
 1200 200 l 1
1400 200 m 1
 1500 200 l 1
 1500 -0 l 1
 1400 -0 l 1
 1400 200 l 1
EndSplineSet
Validated: 1
EndChar

StartChar: w
Encoding: 119 119 22
Width: 1900
VWidth: 90
Flags: HW
LayerCount: 2
Back
Fore
SplineSet
0 200 m 1
 200 200 l 1
 200 -0 l 1
 0 -0 l 1
 0 200 l 1
300 200 m 1
 400 200 l 1
 400 -0 l 1
 300 -0 l 1
 300 200 l 1
500 200 m 1
 600 200 l 1
 600 -0 l 1
 500 -0 l 1
 500 200 l 1
700 200 m 1
 800 200 l 1
 800 -0 l 1
 700 -0 l 1
 700 200 l 1
900 200 m 1
 1100 200 l 1
 1100 -0 l 1
 900 -0 l 1
 900 200 l 1
1200 200 m 1
 1300 200 l 1
 1300 -0 l 1
 1200 -0 l 1
 1200 200 l 1
1400 200 m 1
 1500 200 l 1
 1500 -0 l 1
 1400 -0 l 1
 1400 200 l 1
1600 200 m 1
 1700 200 l 1
 1700 -0 l 1
 1600 -0 l 1
 1600 200 l 1
EndSplineSet
Validated: 1
EndChar

StartChar: x
Encoding: 120 120 23
Width: 2100
VWidth: 90
Flags: HW
LayerCount: 2
Back
Fore
SplineSet
0 200 m 1
 200 200 l 1
 200 -0 l 1
 0 -0 l 1
 0 200 l 1
300 200 m 1
 400 200 l 1
 400 -0 l 1
 300 -0 l 1
 300 200 l 1
500 200 m 1
 600 200 l 1
 600 -0 l 1
 500 -0 l 1
 500 200 l 1
700 200 m 1
 800 200 l 1
 800 -0 l 1
 700 -0 l 1
 700 200 l 1
1700 200 m 1
 1900 200 l 1
 1900 0 l 1
 1700 0 l 1
 1700 200 l 1
1400 200 m 1
 1600 200 l 1
 1600 0 l 1
 1400 0 l 1
 1400 200 l 1
1100 200 m 1
 1300 200 l 1
 1300 0 l 1
 1100 0 l 1
 1100 200 l 1
900 200 m 1
 1000 200 l 1
 1000 -0 l 1
 900 -0 l 1
 900 200 l 1
EndSplineSet
Validated: 1
EndChar

StartChar: y
Encoding: 121 121 24
Width: 2000
VWidth: 90
Flags: HW
LayerCount: 2
Back
Fore
SplineSet
0 200 m 1
 200 200 l 1
 200 -0 l 1
 0 -0 l 1
 0 200 l 1
300 200 m 1
 400 200 l 1
 400 -0 l 1
 300 -0 l 1
 300 200 l 1
500 200 m 1
 600 200 l 1
 600 -0 l 1
 500 -0 l 1
 500 200 l 1
700 200 m 1
 800 200 l 1
 800 -0 l 1
 700 -0 l 1
 700 200 l 1
1400 200 m 1
 1600 200 l 1
 1600 0 l 1
 1400 0 l 1
 1400 200 l 1
1100 200 m 1
 1300 200 l 1
 1300 0 l 1
 1100 0 l 1
 1100 200 l 1
900 200 m 1
 1000 200 l 1
 1000 -0 l 1
 900 -0 l 1
 900 200 l 1
1700 200 m 1
 1800 200 l 1
 1800 -0 l 1
 1700 -0 l 1
 1700 200 l 1
EndSplineSet
Validated: 1
EndChar

StartChar: A
Encoding: 65 65 25
Width: 2300
VWidth: 90
Flags: HW
LayerCount: 2
Back
Fore
SplineSet
0 200 m 5
 200 200 l 5
 200 0 l 5
 0 0 l 5
 0 200 l 5
300 200 m 5
 400 200 l 5
 400 0 l 5
 300 0 l 5
 300 200 l 5
500 200 m 5
 700 200 l 5
 700 0 l 5
 500 0 l 5
 500 200 l 5
800 200 m 5
 1000 200 l 5
 1000 0 l 5
 800 0 l 5
 800 200 l 5
1100 200 m 5
 1300 200 l 5
 1300 0 l 5
 1100 0 l 5
 1100 200 l 5
1400 200 m 5
 1600 200 l 5
 1600 0 l 5
 1400 0 l 5
 1400 200 l 5
1700 200 m 5
 1900 200 l 5
 1900 0 l 5
 1700 0 l 5
 1700 200 l 5
2000 200 m 5
 2100 200 l 5
 2100 0 l 5
 2000 0 l 5
 2000 200 l 5
EndSplineSet
Validated: 1
EndChar

StartChar: B
Encoding: 66 66 26
Width: 2300
VWidth: 90
Flags: HW
LayerCount: 2
Back
Fore
SplineSet
0 200 m 1
 200 200 l 1
 200 0 l 1
 0 0 l 1
 0 200 l 1
300 200 m 1
 400 200 l 1
 400 0 l 1
 300 0 l 1
 300 200 l 1
500 200 m 1
 700 200 l 1
 700 0 l 1
 500 0 l 1
 500 200 l 1
800 200 m 1
 1000 200 l 1
 1000 0 l 1
 800 0 l 1
 800 200 l 1
1100 200 m 1
 1300 200 l 1
 1300 0 l 1
 1100 0 l 1
 1100 200 l 1
1400 200 m 1
 1600 200 l 1
 1600 0 l 1
 1400 0 l 1
 1400 200 l 1
1700 200 m 1
 1800 200 l 1
 1800 0 l 1
 1700 0 l 1
 1700 200 l 1
1900 200 m 1
 2100 200 l 1
 2100 0 l 1
 1900 0 l 1
 1900 200 l 1
EndSplineSet
Validated: 1
EndChar

StartChar: C
Encoding: 67 67 27
Width: 2200
VWidth: 90
Flags: HW
LayerCount: 2
Back
Fore
SplineSet
0 200 m 1
 200 200 l 1
 200 0 l 1
 0 0 l 1
 0 200 l 1
300 200 m 1
 400 200 l 1
 400 0 l 1
 300 0 l 1
 300 200 l 1
500 200 m 1
 700 200 l 1
 700 0 l 1
 500 0 l 1
 500 200 l 1
800 200 m 1
 1000 200 l 1
 1000 0 l 1
 800 0 l 1
 800 200 l 1
1100 200 m 1
 1300 200 l 1
 1300 0 l 1
 1100 0 l 1
 1100 200 l 1
1400 200 m 1
 1600 200 l 1
 1600 0 l 1
 1400 0 l 1
 1400 200 l 1
1700 200 m 1
 1800 200 l 1
 1800 0 l 1
 1700 0 l 1
 1700 200 l 1
1900 200 m 1
 2000 200 l 1
 2000 0 l 1
 1900 0 l 1
 1900 200 l 1
EndSplineSet
Validated: 1
EndChar

StartChar: D
Encoding: 68 68 28
Width: 2300
VWidth: 90
Flags: HW
LayerCount: 2
Back
Fore
SplineSet
0 200 m 1
 200 200 l 1
 200 -0 l 1
 0 -0 l 1
 0 200 l 1
300 200 m 1
 400 200 l 1
 400 -0 l 1
 300 -0 l 1
 300 200 l 1
500 200 m 1
 700 200 l 1
 700 -0 l 1
 500 -0 l 1
 500 200 l 1
800 200 m 1
 1000 200 l 1
 1000 -0 l 1
 800 -0 l 1
 800 200 l 1
1100 200 m 1
 1300 200 l 1
 1300 -0 l 1
 1100 -0 l 1
 1100 200 l 1
1400 200 m 1
 1500 200 l 1
 1500 -0 l 1
 1400 -0 l 1
 1400 200 l 1
1600 200 m 1
 1800 200 l 1
 1800 -0 l 1
 1600 -0 l 1
 1600 200 l 1
1900 200 m 1
 2100 200 l 1
 2100 0 l 1
 1900 0 l 1
 1900 200 l 1
EndSplineSet
Validated: 1
EndChar

StartChar: E
Encoding: 69 69 29
Width: 2200
VWidth: 90
Flags: HW
LayerCount: 2
Back
Fore
SplineSet
0 200 m 1
 200 200 l 1
 200 -0 l 1
 0 -0 l 1
 0 200 l 1
300 200 m 1
 400 200 l 1
 400 -0 l 1
 300 -0 l 1
 300 200 l 1
500 200 m 1
 700 200 l 1
 700 -0 l 1
 500 -0 l 1
 500 200 l 1
800 200 m 1
 1000 200 l 1
 1000 -0 l 1
 800 -0 l 1
 800 200 l 1
1100 200 m 1
 1300 200 l 1
 1300 -0 l 1
 1100 -0 l 1
 1100 200 l 1
1400 200 m 1
 1500 200 l 1
 1500 -0 l 1
 1400 -0 l 1
 1400 200 l 1
1600 200 m 1
 1800 200 l 1
 1800 -0 l 1
 1600 -0 l 1
 1600 200 l 1
1900 200 m 1
 2000 200 l 1
 2000 -0 l 1
 1900 -0 l 1
 1900 200 l 1
EndSplineSet
Validated: 1
EndChar

StartChar: F
Encoding: 70 70 30
Width: 2200
VWidth: 90
Flags: HW
LayerCount: 2
Back
Fore
SplineSet
0 200 m 1
 200 200 l 1
 200 -0 l 1
 0 -0 l 1
 0 200 l 1
300 200 m 1
 400 200 l 1
 400 -0 l 1
 300 -0 l 1
 300 200 l 1
500 200 m 1
 700 200 l 1
 700 -0 l 1
 500 -0 l 1
 500 200 l 1
800 200 m 1
 1000 200 l 1
 1000 -0 l 1
 800 -0 l 1
 800 200 l 1
1100 200 m 1
 1300 200 l 1
 1300 -0 l 1
 1100 -0 l 1
 1100 200 l 1
1400 200 m 1
 1500 200 l 1
 1500 -0 l 1
 1400 -0 l 1
 1400 200 l 1
1600 200 m 1
 1700 200 l 1
 1700 -0 l 1
 1600 -0 l 1
 1600 200 l 1
1800 200 m 1
 2000 200 l 1
 2000 -0 l 1
 1800 -0 l 1
 1800 200 l 1
EndSplineSet
Validated: 1
EndChar

StartChar: G
Encoding: 71 71 31
Width: 2100
VWidth: 90
Flags: HW
LayerCount: 2
Back
Fore
SplineSet
0 200 m 1
 200 200 l 1
 200 -0 l 1
 0 -0 l 1
 0 200 l 1
300 200 m 1
 400 200 l 1
 400 -0 l 1
 300 -0 l 1
 300 200 l 1
500 200 m 1
 700 200 l 1
 700 -0 l 1
 500 -0 l 1
 500 200 l 1
800 200 m 1
 1000 200 l 1
 1000 -0 l 1
 800 -0 l 1
 800 200 l 1
1100 200 m 1
 1300 200 l 1
 1300 -0 l 1
 1100 -0 l 1
 1100 200 l 1
1400 200 m 1
 1500 200 l 1
 1500 -0 l 1
 1400 -0 l 1
 1400 200 l 1
1600 200 m 1
 1700 200 l 1
 1700 -0 l 1
 1600 -0 l 1
 1600 200 l 1
1800 200 m 1
 1900 200 l 1
 1900 -0 l 1
 1800 -0 l 1
 1800 200 l 1
EndSplineSet
Validated: 1
EndChar

StartChar: H
Encoding: 72 72 32
Width: 2300
VWidth: 90
Flags: HW
LayerCount: 2
Back
Fore
SplineSet
0 200 m 1
 200 200 l 1
 200 -0 l 1
 0 -0 l 1
 0 200 l 1
300 200 m 1
 400 200 l 1
 400 -0 l 1
 300 -0 l 1
 300 200 l 1
500 200 m 1
 700 200 l 1
 700 -0 l 1
 500 -0 l 1
 500 200 l 1
800 200 m 1
 1000 200 l 1
 1000 -0 l 1
 800 -0 l 1
 800 200 l 1
1100 200 m 1
 1200 200 l 1
 1200 -0 l 1
 1100 -0 l 1
 1100 200 l 1
1300 200 m 1
 1500 200 l 1
 1500 -0 l 1
 1300 -0 l 1
 1300 200 l 1
1600 200 m 1
 1800 200 l 1
 1800 -0 l 1
 1600 -0 l 1
 1600 200 l 1
1900 200 m 1
 2100 200 l 1
 2100 -0 l 1
 1900 -0 l 1
 1900 200 l 1
EndSplineSet
Validated: 1
EndChar

StartChar: I
Encoding: 73 73 33
Width: 2200
VWidth: 90
Flags: HW
LayerCount: 2
Back
Fore
SplineSet
0 200 m 1
 200 200 l 1
 200 -0 l 1
 0 -0 l 1
 0 200 l 1
300 200 m 1
 400 200 l 1
 400 -0 l 1
 300 -0 l 1
 300 200 l 1
500 200 m 1
 700 200 l 1
 700 -0 l 1
 500 -0 l 1
 500 200 l 1
800 200 m 1
 1000 200 l 1
 1000 -0 l 1
 800 -0 l 1
 800 200 l 1
1100 200 m 1
 1200 200 l 1
 1200 -0 l 1
 1100 -0 l 1
 1100 200 l 1
1300 200 m 1
 1500 200 l 1
 1500 -0 l 1
 1300 -0 l 1
 1300 200 l 1
1600 200 m 1
 1800 200 l 1
 1800 -0 l 1
 1600 -0 l 1
 1600 200 l 1
1900 200 m 1
 2000 200 l 1
 2000 -0 l 1
 1900 -0 l 1
 1900 200 l 1
EndSplineSet
Validated: 1
EndChar

StartChar: J
Encoding: 74 74 34
Width: 2200
VWidth: 90
Flags: HW
LayerCount: 2
Back
Fore
SplineSet
0 200 m 1
 200 200 l 1
 200 -0 l 1
 0 -0 l 1
 0 200 l 1
300 200 m 1
 400 200 l 1
 400 -0 l 1
 300 -0 l 1
 300 200 l 1
500 200 m 1
 700 200 l 1
 700 -0 l 1
 500 -0 l 1
 500 200 l 1
800 200 m 1
 1000 200 l 1
 1000 -0 l 1
 800 -0 l 1
 800 200 l 1
1100 200 m 1
 1200 200 l 1
 1200 -0 l 1
 1100 -0 l 1
 1100 200 l 1
1300 200 m 1
 1500 200 l 1
 1500 -0 l 1
 1300 -0 l 1
 1300 200 l 1
1600 200 m 1
 1700 200 l 1
 1700 -0 l 1
 1600 -0 l 1
 1600 200 l 1
1800 200 m 1
 2000 200 l 1
 2000 -0 l 1
 1800 -0 l 1
 1800 200 l 1
EndSplineSet
Validated: 1
EndChar

StartChar: K
Encoding: 75 75 35
Width: 2100
VWidth: 90
Flags: HW
LayerCount: 2
Back
Fore
SplineSet
0 200 m 1
 200 200 l 1
 200 -0 l 1
 0 -0 l 1
 0 200 l 1
300 200 m 1
 400 200 l 1
 400 -0 l 1
 300 -0 l 1
 300 200 l 1
500 200 m 1
 700 200 l 1
 700 -0 l 1
 500 -0 l 1
 500 200 l 1
800 200 m 1
 1000 200 l 1
 1000 -0 l 1
 800 -0 l 1
 800 200 l 1
1100 200 m 1
 1200 200 l 1
 1200 -0 l 1
 1100 -0 l 1
 1100 200 l 1
1300 200 m 1
 1500 200 l 1
 1500 -0 l 1
 1300 -0 l 1
 1300 200 l 1
1600 200 m 1
 1700 200 l 1
 1700 -0 l 1
 1600 -0 l 1
 1600 200 l 1
1800 200 m 1
 1900 200 l 1
 1900 -0 l 1
 1800 -0 l 1
 1800 200 l 1
EndSplineSet
Validated: 1
EndChar

StartChar: L
Encoding: 76 76 36
Width: 2200
VWidth: 90
Flags: HW
LayerCount: 2
Back
Fore
SplineSet
0 200 m 1
 200 200 l 1
 200 -0 l 1
 0 -0 l 1
 0 200 l 1
300 200 m 1
 400 200 l 1
 400 -0 l 1
 300 -0 l 1
 300 200 l 1
500 200 m 1
 700 200 l 1
 700 -0 l 1
 500 -0 l 1
 500 200 l 1
800 200 m 1
 1000 200 l 1
 1000 -0 l 1
 800 -0 l 1
 800 200 l 1
1100 200 m 1
 1200 200 l 1
 1200 -0 l 1
 1100 -0 l 1
 1100 200 l 1
1300 200 m 1
 1400 200 l 1
 1400 -0 l 1
 1300 -0 l 1
 1300 200 l 1
1500 200 m 1
 1700 200 l 1
 1700 -0 l 1
 1500 -0 l 1
 1500 200 l 1
1800 200 m 1
 2000 200 l 1
 2000 -0 l 1
 1800 -0 l 1
 1800 200 l 1
EndSplineSet
Validated: 1
EndChar

StartChar: M
Encoding: 77 77 37
Width: 2100
VWidth: 90
Flags: HW
LayerCount: 2
Back
Fore
SplineSet
0 200 m 1
 200 200 l 5
 200 -0 l 1
 0 -0 l 1
 0 200 l 1
300 200 m 1
 400 200 l 1
 400 -0 l 1
 300 -0 l 1
 300 200 l 1
500 200 m 1
 700 200 l 1
 700 -0 l 1
 500 -0 l 1
 500 200 l 1
800 200 m 1
 1000 200 l 1
 1000 -0 l 1
 800 -0 l 1
 800 200 l 1
1100 200 m 1
 1200 200 l 1
 1200 -0 l 1
 1100 -0 l 1
 1100 200 l 1
1300 200 m 1
 1400 200 l 1
 1400 -0 l 1
 1300 -0 l 1
 1300 200 l 1
1500 200 m 1
 1700 200 l 1
 1700 -0 l 1
 1500 -0 l 1
 1500 200 l 1
1800 200 m 1
 1900 200 l 1
 1900 -0 l 1
 1800 -0 l 1
 1800 200 l 1
EndSplineSet
Validated: 1
EndChar

StartChar: N
Encoding: 78 78 38
Width: 2100
VWidth: 90
Flags: HW
LayerCount: 2
Back
Fore
SplineSet
0 200 m 1
 200 200 l 1
 200 -0 l 1
 0 -0 l 1
 0 200 l 1
300 200 m 1
 400 200 l 1
 400 -0 l 1
 300 -0 l 1
 300 200 l 1
500 200 m 1
 700 200 l 1
 700 -0 l 1
 500 -0 l 1
 500 200 l 1
800 200 m 1
 1000 200 l 1
 1000 -0 l 1
 800 -0 l 1
 800 200 l 1
1100 200 m 1
 1200 200 l 1
 1200 -0 l 1
 1100 -0 l 1
 1100 200 l 1
1300 200 m 1
 1400 200 l 1
 1400 -0 l 1
 1300 -0 l 1
 1300 200 l 1
1500 200 m 1
 1600 200 l 1
 1600 -0 l 1
 1500 -0 l 1
 1500 200 l 1
1700 200 m 1
 1900 200 l 1
 1900 -0 l 1
 1700 -0 l 1
 1700 200 l 1
EndSplineSet
Validated: 1
EndChar

StartChar: O
Encoding: 79 79 39
Width: 2000
VWidth: 90
Flags: HW
LayerCount: 2
Back
Fore
SplineSet
0 200 m 1
 200 200 l 1
 200 -0 l 1
 0 -0 l 1
 0 200 l 1
300 200 m 1
 400 200 l 1
 400 -0 l 1
 300 -0 l 1
 300 200 l 1
500 200 m 1
 700 200 l 1
 700 -0 l 1
 500 -0 l 1
 500 200 l 1
800 200 m 1
 1000 200 l 1
 1000 -0 l 1
 800 -0 l 1
 800 200 l 1
1100 200 m 1
 1200 200 l 1
 1200 -0 l 1
 1100 -0 l 1
 1100 200 l 1
1300 200 m 1
 1400 200 l 1
 1400 -0 l 1
 1300 -0 l 1
 1300 200 l 1
1500 200 m 1
 1600 200 l 1
 1600 -0 l 1
 1500 -0 l 1
 1500 200 l 1
1700 200 m 1
 1800 200 l 1
 1800 -0 l 1
 1700 -0 l 1
 1700 200 l 1
EndSplineSet
Validated: 1
EndChar

StartChar: P
Encoding: 80 80 40
Width: 2300
VWidth: 90
Flags: HW
LayerCount: 2
Back
Fore
SplineSet
0 200 m 1
 200 200 l 1
 200 -0 l 1
 0 -0 l 1
 0 200 l 1
300 200 m 1
 400 200 l 1
 400 -0 l 1
 300 -0 l 1
 300 200 l 1
500 200 m 1
 700 200 l 1
 700 -0 l 1
 500 -0 l 1
 500 200 l 1
800 200 m 1
 900 200 l 1
 900 -0 l 1
 800 -0 l 1
 800 200 l 1
1000 200 m 1
 1200 200 l 1
 1200 -0 l 1
 1000 -0 l 1
 1000 200 l 1
1300 200 m 1
 1500 200 l 1
 1500 -0 l 1
 1300 -0 l 1
 1300 200 l 1
1600 200 m 1
 1800 200 l 1
 1800 -0 l 1
 1600 -0 l 1
 1600 200 l 1
1900 200 m 1
 2100 200 l 1
 2100 0 l 1
 1900 0 l 1
 1900 200 l 1
EndSplineSet
Validated: 1
EndChar

StartChar: Q
Encoding: 81 81 41
Width: 2200
VWidth: 90
Flags: HW
LayerCount: 2
Back
Fore
SplineSet
0 200 m 1
 200 200 l 1
 200 -0 l 1
 0 -0 l 1
 0 200 l 1
300 200 m 1
 400 200 l 1
 400 -0 l 1
 300 -0 l 1
 300 200 l 1
500 200 m 1
 700 200 l 1
 700 -0 l 1
 500 -0 l 1
 500 200 l 1
800 200 m 1
 900 200 l 1
 900 -0 l 1
 800 -0 l 1
 800 200 l 1
1000 200 m 1
 1200 200 l 1
 1200 -0 l 1
 1000 -0 l 1
 1000 200 l 1
1300 200 m 1
 1500 200 l 1
 1500 -0 l 1
 1300 -0 l 1
 1300 200 l 1
1600 200 m 1
 1800 200 l 1
 1800 -0 l 1
 1600 -0 l 1
 1600 200 l 1
1900 200 m 1
 2000 200 l 1
 2000 -0 l 1
 1900 -0 l 1
 1900 200 l 1
EndSplineSet
Validated: 1
EndChar

StartChar: R
Encoding: 82 82 42
Width: 2200
VWidth: 90
Flags: HW
LayerCount: 2
Back
Fore
SplineSet
0 200 m 1
 200 200 l 1
 200 -0 l 1
 0 -0 l 1
 0 200 l 1
300 200 m 1
 400 200 l 1
 400 -0 l 1
 300 -0 l 1
 300 200 l 1
500 200 m 1
 700 200 l 1
 700 -0 l 1
 500 -0 l 1
 500 200 l 1
800 200 m 1
 900 200 l 1
 900 -0 l 1
 800 -0 l 1
 800 200 l 1
1000 200 m 1
 1200 200 l 1
 1200 -0 l 1
 1000 -0 l 1
 1000 200 l 1
1300 200 m 1
 1500 200 l 1
 1500 -0 l 1
 1300 -0 l 1
 1300 200 l 1
1600 200 m 1
 1700 200 l 1
 1700 -0 l 1
 1600 -0 l 1
 1600 200 l 1
1800 200 m 1
 2000 200 l 1
 2000 -0 l 1
 1800 -0 l 1
 1800 200 l 1
EndSplineSet
Validated: 1
EndChar

StartChar: S
Encoding: 83 83 43
Width: 2100
VWidth: 90
Flags: HW
LayerCount: 2
Back
Fore
SplineSet
0 200 m 1
 200 200 l 1
 200 -0 l 1
 0 -0 l 1
 0 200 l 1
300 200 m 1
 400 200 l 1
 400 -0 l 1
 300 -0 l 1
 300 200 l 1
500 200 m 1
 700 200 l 1
 700 -0 l 1
 500 -0 l 1
 500 200 l 1
800 200 m 1
 900 200 l 1
 900 -0 l 1
 800 -0 l 1
 800 200 l 1
1000 200 m 1
 1200 200 l 1
 1200 -0 l 1
 1000 -0 l 1
 1000 200 l 1
1300 200 m 1
 1500 200 l 1
 1500 -0 l 1
 1300 -0 l 1
 1300 200 l 1
1600 200 m 1
 1700 200 l 1
 1700 -0 l 1
 1600 -0 l 1
 1600 200 l 1
1800 200 m 1
 1900 200 l 1
 1900 -0 l 1
 1800 -0 l 1
 1800 200 l 1
EndSplineSet
Validated: 1
EndChar

StartChar: T
Encoding: 84 84 44
Width: 2200
VWidth: 0
Flags: HW
LayerCount: 2
Back
Fore
SplineSet
0 200 m 1
 200 200 l 1
 200 -0 l 1
 0 -0 l 1
 0 200 l 1
300 200 m 1
 400 200 l 1
 400 -0 l 1
 300 -0 l 1
 300 200 l 1
500 200 m 1
 700 200 l 1
 700 -0 l 1
 500 -0 l 1
 500 200 l 1
800 200 m 1
 900 200 l 1
 900 -0 l 1
 800 -0 l 1
 800 200 l 1
1000 200 m 1
 1200 200 l 1
 1200 -0 l 1
 1000 -0 l 1
 1000 200 l 1
1300 200 m 1
 1400 200 l 1
 1400 -0 l 1
 1300 -0 l 1
 1300 200 l 1
1500 200 m 1
 1700 200 l 1
 1700 -0 l 1
 1500 -0 l 1
 1500 200 l 1
1800 200 m 1
 2000 200 l 1
 2000 -0 l 1
 1800 -0 l 1
 1800 200 l 1
EndSplineSet
Validated: 1
EndChar

StartChar: U
Encoding: 85 85 45
Width: 2100
VWidth: 90
Flags: HW
LayerCount: 2
Back
Fore
SplineSet
0 200 m 1
 200 200 l 1
 200 -0 l 1
 0 -0 l 1
 0 200 l 1
300 200 m 1
 400 200 l 1
 400 -0 l 1
 300 -0 l 1
 300 200 l 1
500 200 m 1
 700 200 l 1
 700 -0 l 1
 500 -0 l 1
 500 200 l 1
800 200 m 1
 900 200 l 1
 900 -0 l 1
 800 -0 l 1
 800 200 l 1
1000 200 m 1
 1200 200 l 1
 1200 -0 l 1
 1000 -0 l 1
 1000 200 l 1
1300 200 m 1
 1400 200 l 1
 1400 -0 l 1
 1300 -0 l 1
 1300 200 l 1
1500 200 m 1
 1700 200 l 1
 1700 -0 l 1
 1500 -0 l 1
 1500 200 l 1
1800 200 m 1
 1900 200 l 1
 1900 -0 l 1
 1800 -0 l 1
 1800 200 l 1
EndSplineSet
Validated: 1
EndChar

StartChar: V
Encoding: 86 86 46
Width: 2100
VWidth: 90
Flags: HW
LayerCount: 2
Back
Fore
SplineSet
0 200 m 1
 200 200 l 1
 200 -0 l 1
 0 -0 l 1
 0 200 l 1
300 200 m 1
 400 200 l 1
 400 -0 l 1
 300 -0 l 1
 300 200 l 1
500 200 m 1
 700 200 l 1
 700 -0 l 1
 500 -0 l 1
 500 200 l 1
800 200 m 1
 900 200 l 1
 900 -0 l 1
 800 -0 l 1
 800 200 l 1
1000 200 m 1
 1200 200 l 1
 1200 -0 l 1
 1000 -0 l 1
 1000 200 l 1
1300 200 m 1
 1400 200 l 1
 1400 -0 l 1
 1300 -0 l 1
 1300 200 l 1
1500 200 m 1
 1600 200 l 1
 1600 -0 l 1
 1500 -0 l 1
 1500 200 l 1
1700 200 m 1
 1900 200 l 1
 1900 -0 l 1
 1700 -0 l 1
 1700 200 l 1
EndSplineSet
Validated: 1
EndChar

StartChar: W
Encoding: 87 87 47
Width: 2000
VWidth: 90
Flags: HW
LayerCount: 2
Back
Fore
SplineSet
0 200 m 1
 200 200 l 1
 200 -0 l 1
 0 -0 l 1
 0 200 l 1
300 200 m 1
 400 200 l 1
 400 -0 l 1
 300 -0 l 1
 300 200 l 1
500 200 m 1
 700 200 l 1
 700 -0 l 1
 500 -0 l 1
 500 200 l 1
800 200 m 1
 900 200 l 1
 900 -0 l 1
 800 -0 l 1
 800 200 l 1
1000 200 m 1
 1200 200 l 1
 1200 -0 l 1
 1000 -0 l 1
 1000 200 l 1
1300 200 m 1
 1400 200 l 1
 1400 -0 l 1
 1300 -0 l 1
 1300 200 l 1
1500 200 m 1
 1600 200 l 1
 1600 -0 l 1
 1500 -0 l 1
 1500 200 l 1
1700 200 m 1
 1800 200 l 1
 1800 0 l 1
 1700 0 l 1
 1700 200 l 1
EndSplineSet
Validated: 1
EndChar

StartChar: X
Encoding: 88 88 48
Width: 2200
VWidth: 90
Flags: HW
LayerCount: 2
Back
Fore
SplineSet
0 200 m 1
 200 200 l 1
 200 -0 l 1
 0 -0 l 1
 0 200 l 1
300 200 m 1
 400 200 l 1
 400 -0 l 1
 300 -0 l 1
 300 200 l 1
500 200 m 1
 700 200 l 1
 700 -0 l 1
 500 -0 l 1
 500 200 l 1
800 200 m 1
 900 200 l 1
 900 -0 l 1
 800 -0 l 1
 800 200 l 1
1000 200 m 1
 1100 200 l 1
 1100 -0 l 1
 1000 -0 l 1
 1000 200 l 1
1200 200 m 1
 1400 200 l 1
 1400 -0 l 1
 1200 -0 l 1
 1200 200 l 1
1500 200 m 1
 1700 200 l 1
 1700 -0 l 1
 1500 -0 l 1
 1500 200 l 1
1800 200 m 1
 2000 200 l 1
 2000 -0 l 1
 1800 -0 l 1
 1800 200 l 1
EndSplineSet
Validated: 1
EndChar

StartChar: Y
Encoding: 89 89 49
Width: 2100
VWidth: 90
Flags: HW
LayerCount: 2
Back
Fore
SplineSet
0 200 m 1
 200 200 l 1
 200 -0 l 1
 0 -0 l 1
 0 200 l 1
300 200 m 1
 400 200 l 1
 400 -0 l 1
 300 -0 l 1
 300 200 l 1
500 200 m 1
 700 200 l 1
 700 -0 l 1
 500 -0 l 1
 500 200 l 1
800 200 m 1
 900 200 l 1
 900 -0 l 1
 800 -0 l 1
 800 200 l 1
1000 200 m 1
 1100 200 l 1
 1100 -0 l 1
 1000 -0 l 1
 1000 200 l 1
1200 200 m 1
 1400 200 l 1
 1400 -0 l 1
 1200 -0 l 1
 1200 200 l 1
1500 200 m 1
 1700 200 l 1
 1700 -0 l 1
 1500 -0 l 1
 1500 200 l 1
1800 200 m 1
 1900 200 l 1
 1900 -0 l 1
 1800 -0 l 1
 1800 200 l 1
EndSplineSet
Validated: 1
EndChar

StartChar: 0
Encoding: 48 48 50
Width: 2300
VWidth: 90
Flags: HW
LayerCount: 2
Back
Fore
SplineSet
0 200 m 1
 200 200 l 1
 200 -0 l 1
 0 -0 l 1
 0 200 l 1
600 200 m 1
 700 200 l 1
 700 -0 l 1
 600 -0 l 1
 600 200 l 1
800 200 m 1
 900 200 l 1
 900 -0 l 1
 800 -0 l 1
 800 200 l 1
300 200 m 1
 500 200 l 1
 500 -0 l 1
 300 -0 l 1
 300 200 l 1
1300 200 m 1
 1500 200 l 1
 1500 -0 l 1
 1300 -0 l 1
 1300 200 l 1
1600 200 m 1
 1800 200 l 1
 1800 -0 l 1
 1600 -0 l 1
 1600 200 l 1
1900 200 m 1
 2100 200 l 1
 2100 -0 l 1
 1900 -0 l 1
 1900 200 l 1
1000 200 m 1
 1200 200 l 1
 1200 -0 l 1
 1000 -0 l 1
 1000 200 l 1
EndSplineSet
Validated: 1
EndChar

StartChar: 1
Encoding: 49 49 51
Width: 2200
VWidth: 90
Flags: HW
LayerCount: 2
Back
Fore
SplineSet
0 200 m 1
 200 200 l 1
 200 -0 l 1
 0 -0 l 1
 0 200 l 1
600 200 m 1
 700 200 l 1
 700 -0 l 1
 600 -0 l 1
 600 200 l 1
800 200 m 1
 900 200 l 1
 900 -0 l 1
 800 -0 l 1
 800 200 l 1
1600 200 m 1
 1800 200 l 1
 1800 -0 l 1
 1600 -0 l 1
 1600 200 l 1
1000 200 m 1
 1200 200 l 1
 1200 -0 l 1
 1000 -0 l 1
 1000 200 l 1
300 200 m 1
 500 200 l 1
 500 -0 l 1
 300 -0 l 1
 300 200 l 1
1300 200 m 1
 1500 200 l 1
 1500 -0 l 1
 1300 -0 l 1
 1300 200 l 1
1900 200 m 1
 2000 200 l 1
 2000 -0 l 1
 1900 -0 l 1
 1900 200 l 1
EndSplineSet
Validated: 1
EndChar

StartChar: 2
Encoding: 50 50 52
Width: 2200
VWidth: 90
Flags: HW
LayerCount: 2
Back
Fore
SplineSet
0 200 m 1
 200 200 l 1
 200 -0 l 1
 0 -0 l 1
 0 200 l 1
600 200 m 1
 700 200 l 1
 700 -0 l 1
 600 -0 l 1
 600 200 l 1
800 200 m 1
 900 200 l 1
 900 -0 l 1
 800 -0 l 1
 800 200 l 1
1800 200 m 1
 2000 200 l 1
 2000 -0 l 1
 1800 -0 l 1
 1800 200 l 1
1000 200 m 1
 1200 200 l 1
 1200 -0 l 1
 1000 -0 l 1
 1000 200 l 1
300 200 m 1
 500 200 l 1
 500 -0 l 1
 300 -0 l 1
 300 200 l 1
1300 200 m 1
 1500 200 l 1
 1500 -0 l 1
 1300 -0 l 1
 1300 200 l 1
1600 200 m 1
 1700 200 l 1
 1700 -0 l 1
 1600 -0 l 1
 1600 200 l 1
EndSplineSet
Validated: 1
EndChar

StartChar: 3
Encoding: 51 51 53
Width: 2100
VWidth: 90
Flags: HW
LayerCount: 2
Back
Fore
SplineSet
0 200 m 1
 200 200 l 1
 200 -0 l 1
 0 -0 l 1
 0 200 l 1
600 200 m 1
 700 200 l 1
 700 -0 l 1
 600 -0 l 1
 600 200 l 1
800 200 m 1
 900 200 l 1
 900 -0 l 1
 800 -0 l 1
 800 200 l 1
1000 200 m 1
 1200 200 l 1
 1200 -0 l 1
 1000 -0 l 1
 1000 200 l 1
300 200 m 1
 500 200 l 1
 500 -0 l 1
 300 -0 l 1
 300 200 l 1
1300 200 m 1
 1500 200 l 1
 1500 -0 l 1
 1300 -0 l 1
 1300 200 l 1
1600 200 m 1
 1700 200 l 1
 1700 -0 l 1
 1600 -0 l 1
 1600 200 l 1
1800 200 m 1
 1900 200 l 1
 1900 -0 l 1
 1800 -0 l 1
 1800 200 l 1
EndSplineSet
Validated: 1
EndChar

StartChar: 4
Encoding: 52 52 54
Width: 2200
VWidth: 90
Flags: HW
LayerCount: 2
Back
Fore
SplineSet
0 200 m 1
 200 200 l 1
 200 -0 l 1
 0 -0 l 1
 0 200 l 1
600 200 m 1
 700 200 l 1
 700 -0 l 1
 600 -0 l 1
 600 200 l 1
800 200 m 1
 900 200 l 1
 900 -0 l 1
 800 -0 l 1
 800 200 l 1
1000 200 m 1
 1200 200 l 1
 1200 -0 l 1
 1000 -0 l 1
 1000 200 l 1
300 200 m 1
 500 200 l 1
 500 -0 l 1
 300 -0 l 1
 300 200 l 1
1300 200 m 1
 1400 200 l 1
 1400 0 l 1
 1300 0 l 1
 1300 200 l 1
1500 200 m 1
 1700 200 l 1
 1700 -0 l 1
 1500 -0 l 1
 1500 200 l 1
1800 200 m 1
 2000 200 l 1
 2000 -0 l 1
 1800 -0 l 1
 1800 200 l 1
EndSplineSet
Validated: 1
EndChar

StartChar: 5
Encoding: 53 53 55
Width: 2100
VWidth: 90
Flags: HW
LayerCount: 2
Back
Fore
SplineSet
0 200 m 1
 200 200 l 1
 200 -0 l 1
 0 -0 l 1
 0 200 l 1
600 200 m 1
 700 200 l 1
 700 -0 l 1
 600 -0 l 1
 600 200 l 1
800 200 m 1
 900 200 l 1
 900 -0 l 1
 800 -0 l 1
 800 200 l 1
1000 200 m 1
 1200 200 l 1
 1200 -0 l 1
 1000 -0 l 1
 1000 200 l 1
300 200 m 1
 500 200 l 1
 500 -0 l 1
 300 -0 l 1
 300 200 l 1
1300 200 m 1
 1400 200 l 1
 1400 0 l 1
 1300 0 l 1
 1300 200 l 1
1500 200 m 1
 1700 200 l 1
 1700 -0 l 1
 1500 -0 l 1
 1500 200 l 1
1800 200 m 1
 1900 200 l 1
 1900 -0 l 1
 1800 -0 l 1
 1800 200 l 1
EndSplineSet
Validated: 1
EndChar

StartChar: 6
Encoding: 54 54 56
Width: 2100
VWidth: 90
Flags: HW
LayerCount: 2
Back
Fore
SplineSet
0 200 m 1
 200 200 l 1
 200 -0 l 1
 0 -0 l 1
 0 200 l 1
600 200 m 1
 700 200 l 1
 700 -0 l 1
 600 -0 l 1
 600 200 l 1
800 200 m 1
 900 200 l 1
 900 -0 l 1
 800 -0 l 1
 800 200 l 1
1000 200 m 1
 1200 200 l 1
 1200 -0 l 1
 1000 -0 l 1
 1000 200 l 1
300 200 m 1
 500 200 l 1
 500 -0 l 1
 300 -0 l 1
 300 200 l 1
1300 200 m 1
 1400 200 l 1
 1400 0 l 1
 1300 0 l 1
 1300 200 l 1
1700 200 m 1
 1900 200 l 1
 1900 -0 l 1
 1700 -0 l 1
 1700 200 l 1
1500 200 m 1
 1600 200 l 1
 1600 -0 l 1
 1500 -0 l 1
 1500 200 l 1
EndSplineSet
Validated: 1
EndChar

StartChar: 7
Encoding: 55 55 57
Width: 2000
VWidth: 90
Flags: HW
LayerCount: 2
Back
Fore
SplineSet
0 200 m 1
 200 200 l 1
 200 -0 l 1
 0 -0 l 1
 0 200 l 1
600 200 m 1
 700 200 l 1
 700 -0 l 1
 600 -0 l 1
 600 200 l 1
800 200 m 1
 900 200 l 1
 900 -0 l 1
 800 -0 l 1
 800 200 l 1
1000 200 m 1
 1200 200 l 1
 1200 -0 l 1
 1000 -0 l 1
 1000 200 l 1
300 200 m 1
 500 200 l 1
 500 -0 l 1
 300 -0 l 1
 300 200 l 1
1300 200 m 1
 1400 200 l 1
 1400 0 l 1
 1300 0 l 1
 1300 200 l 1
1500 200 m 1
 1600 200 l 1
 1600 -0 l 1
 1500 -0 l 1
 1500 200 l 1
1700 200 m 1
 1800 200 l 1
 1800 -0 l 1
 1700 -0 l 1
 1700 200 l 1
EndSplineSet
Validated: 1
EndChar

StartChar: 8
Encoding: 56 56 58
Width: 2200
VWidth: 90
Flags: HW
LayerCount: 2
Back
Fore
SplineSet
0 200 m 1
 200 200 l 1
 200 -0 l 1
 0 -0 l 1
 0 200 l 1
600 200 m 1
 700 200 l 1
 700 -0 l 1
 600 -0 l 1
 600 200 l 1
800 200 m 1
 900 200 l 1
 900 -0 l 1
 800 -0 l 1
 800 200 l 1
300 200 m 1
 500 200 l 1
 500 -0 l 1
 300 -0 l 1
 300 200 l 1
1200 200 m 1
 1400 200 l 1
 1400 -0 l 1
 1200 -0 l 1
 1200 200 l 1
1000 200 m 1
 1100 200 l 1
 1100 -0 l 1
 1000 -0 l 1
 1000 200 l 1
1500 200 m 1
 1700 200 l 1
 1700 -0 l 1
 1500 -0 l 1
 1500 200 l 1
1800 200 m 1
 2000 200 l 1
 2000 -0 l 1
 1800 -0 l 1
 1800 200 l 1
EndSplineSet
Validated: 1
EndChar

StartChar: 9
Encoding: 57 57 59
Width: 2100
VWidth: 90
Flags: HW
LayerCount: 2
Back
Fore
SplineSet
0 200 m 1
 200 200 l 1
 200 -0 l 1
 0 -0 l 1
 0 200 l 1
600 200 m 1
 700 200 l 1
 700 -0 l 1
 600 -0 l 1
 600 200 l 1
800 200 m 1
 900 200 l 1
 900 -0 l 1
 800 -0 l 1
 800 200 l 1
300 200 m 1
 500 200 l 1
 500 -0 l 1
 300 -0 l 1
 300 200 l 1
1200 200 m 1
 1400 200 l 1
 1400 -0 l 1
 1200 -0 l 1
 1200 200 l 1
1000 200 m 1
 1100 200 l 1
 1100 -0 l 1
 1000 -0 l 1
 1000 200 l 1
1500 200 m 1
 1700 200 l 1
 1700 -0 l 1
 1500 -0 l 1
 1500 200 l 1
1800 200 m 1
 1900 200 l 1
 1900 0 l 1
 1800 0 l 1
 1800 200 l 1
EndSplineSet
Validated: 1
EndChar

StartChar: g
Encoding: 103 103 60
Width: 2000
VWidth: 90
Flags: HW
LayerCount: 2
Back
Fore
SplineSet
0 200 m 1
 200 200 l 1
 200 -0 l 1
 0 -0 l 1
 0 200 l 1
300 200 m 1
 400 200 l 1
 400 -0 l 1
 300 -0 l 1
 300 200 l 1
500 200 m 1
 600 200 l 1
 600 -0 l 1
 500 -0 l 1
 500 200 l 1
700 200 m 1
 900 200 l 1
 900 -0 l 1
 700 -0 l 1
 700 200 l 1
1000 200 m 1
 1200 200 l 1
 1200 -0 l 1
 1000 -0 l 1
 1000 200 l 1
1300 200 m 1
 1400 200 l 1
 1400 -0 l 1
 1300 -0 l 1
 1300 200 l 1
1500 200 m 1
 1600 200 l 1
 1600 -0 l 1
 1500 -0 l 1
 1500 200 l 1
1700 200 m 1
 1800 200 l 1
 1800 -0 l 1
 1700 -0 l 1
 1700 200 l 1
EndSplineSet
Validated: 1
EndChar

StartChar: z
Encoding: 122 122 61
Width: 2000
VWidth: 90
Flags: HW
LayerCount: 2
Back
Fore
SplineSet
0 200 m 1
 200 200 l 1
 200 -0 l 1
 0 -0 l 1
 0 200 l 1
300 200 m 1
 400 200 l 1
 400 -0 l 1
 300 -0 l 1
 300 200 l 1
500 200 m 1
 600 200 l 1
 600 -0 l 1
 500 -0 l 1
 500 200 l 1
700 200 m 1
 800 200 l 1
 800 -0 l 1
 700 -0 l 1
 700 200 l 1
1600 200 m 1
 1800 200 l 1
 1800 -0 l 1
 1600 -0 l 1
 1600 200 l 1
1100 200 m 1
 1300 200 l 1
 1300 0 l 1
 1100 0 l 1
 1100 200 l 1
900 200 m 1
 1000 200 l 1
 1000 -0 l 1
 900 -0 l 1
 900 200 l 1
1400 200 m 1
 1500 200 l 1
 1500 -0 l 1
 1400 -0 l 1
 1400 200 l 1
EndSplineSet
Validated: 1
EndChar

StartChar: Z
Encoding: 90 90 62
Width: 2100
VWidth: 90
Flags: HW
LayerCount: 2
Back
Fore
SplineSet
0 200 m 1
 200 200 l 1
 200 -0 l 1
 0 -0 l 1
 0 200 l 1
300 200 m 1
 400 200 l 1
 400 -0 l 1
 300 -0 l 1
 300 200 l 1
500 200 m 1
 700 200 l 1
 700 -0 l 1
 500 -0 l 1
 500 200 l 1
800 200 m 1
 900 200 l 1
 900 -0 l 1
 800 -0 l 1
 800 200 l 1
1000 200 m 1
 1100 200 l 1
 1100 -0 l 1
 1000 -0 l 1
 1000 200 l 1
1200 200 m 1
 1400 200 l 1
 1400 -0 l 1
 1200 -0 l 1
 1200 200 l 1
1500 200 m 1
 1600 200 l 1
 1600 -0 l 1
 1500 -0 l 1
 1500 200 l 1
1700 200 m 1
 1900 200 l 1
 1900 -0 l 1
 1700 -0 l 1
 1700 200 l 1
EndSplineSet
Validated: 1
EndChar

StartChar: space
Encoding: 32 32 64
Width: 2400
VWidth: 0
Flags: HW
LayerCount: 2
Back
Fore
SplineSet
0 200 m 1
 200 200 l 1
 200 -0 l 1
 0 -0 l 1
 0 200 l 1
800 200 m 1
 1000 200 l 1
 1000 -0 l 1
 800 -0 l 1
 800 200 l 1
600 200 m 1
 700 200 l 1
 700 -0 l 1
 600 -0 l 1
 600 200 l 1
300 200 m 1
 500 200 l 1
 500 -0 l 1
 300 -0 l 1
 300 200 l 1
1100 200 m 1
 1300 200 l 1
 1300 -0 l 1
 1100 -0 l 1
 1100 200 l 1
1400 200 m 1
 1600 200 l 1
 1600 -0 l 1
 1400 -0 l 1
 1400 200 l 1
1700 200 m 1
 1900 200 l 1
 1900 -0 l 1
 1700 -0 l 1
 1700 200 l 1
2000 200 m 1
 2200 200 l 1
 2200 -0 l 1
 2000 -0 l 1
 2000 200 l 1
EndSplineSet
Validated: 1
EndChar

StartChar: numbersign
Encoding: 35 35 65
Width: 2200
VWidth: 0
Flags: HW
LayerCount: 2
Back
Fore
SplineSet
0 200 m 1
 200 200 l 1
 200 -0 l 1
 0 -0 l 1
 0 200 l 1
600 200 m 1
 700 200 l 1
 700 -0 l 1
 600 -0 l 1
 600 200 l 1
300 200 m 1
 500 200 l 1
 500 -0 l 1
 300 -0 l 1
 300 200 l 1
1100 200 m 1
 1300 200 l 1
 1300 -0 l 1
 1100 -0 l 1
 1100 200 l 1
1400 200 m 1
 1600 200 l 1
 1600 -0 l 1
 1400 -0 l 1
 1400 200 l 1
800 200 m 1
 1000 200 l 1
 1000 -0 l 1
 800 -0 l 1
 800 200 l 1
1700 200 m 1
 1800 200 l 1
 1800 -0 l 1
 1700 -0 l 1
 1700 200 l 1
1900 200 m 1
 2000 200 l 1
 2000 -0 l 1
 1900 -0 l 1
 1900 200 l 1
EndSplineSet
Validated: 1
EndChar

StartChar: ampersand
Encoding: 38 38 66
Width: 2200
VWidth: 0
Flags: HW
LayerCount: 2
Back
Fore
SplineSet
0 200 m 1
 200 200 l 1
 200 -0 l 1
 0 -0 l 1
 0 200 l 1
600 200 m 1
 700 200 l 1
 700 -0 l 1
 600 -0 l 1
 600 200 l 1
300 200 m 1
 500 200 l 1
 500 -0 l 1
 300 -0 l 1
 300 200 l 1
1100 200 m 1
 1300 200 l 1
 1300 -0 l 1
 1100 -0 l 1
 1100 200 l 1
800 200 m 1
 1000 200 l 1
 1000 -0 l 1
 800 -0 l 1
 800 200 l 1
1800 200 m 1
 2000 200 l 1
 2000 -0 l 1
 1800 -0 l 1
 1800 200 l 1
1400 200 m 1
 1500 200 l 1
 1500 0 l 1
 1400 0 l 1
 1400 200 l 1
1600 200 m 1
 1700 200 l 1
 1700 -0 l 1
 1600 -0 l 1
 1600 200 l 1
EndSplineSet
Validated: 1
EndChar

StartChar: exclam
Encoding: 33 33 67
Width: 2300
VWidth: 0
Flags: HW
LayerCount: 2
Back
Fore
SplineSet
0 200 m 1
 200 200 l 1
 200 -0 l 1
 0 -0 l 1
 0 200 l 1
600 200 m 1
 700 200 l 1
 700 -0 l 1
 600 -0 l 1
 600 200 l 1
2000 200 m 1
 2100 200 l 1
 2100 -0 l 1
 2000 -0 l 1
 2000 200 l 1
300 200 m 1
 500 200 l 1
 500 -0 l 1
 300 -0 l 1
 300 200 l 1
1100 200 m 1
 1300 200 l 1
 1300 -0 l 1
 1100 -0 l 1
 1100 200 l 1
1400 200 m 1
 1600 200 l 1
 1600 -0 l 1
 1400 -0 l 1
 1400 200 l 1
1700 200 m 1
 1900 200 l 1
 1900 -0 l 1
 1700 -0 l 1
 1700 200 l 1
800 200 m 1
 1000 200 l 1
 1000 -0 l 1
 800 -0 l 1
 800 200 l 1
EndSplineSet
Validated: 1
EndChar

StartChar: quotedbl
Encoding: 34 34 68
Width: 2300
VWidth: 0
Flags: HW
LayerCount: 2
Back
Fore
SplineSet
0 200 m 1
 200 200 l 1
 200 -0 l 1
 0 -0 l 1
 0 200 l 1
600 200 m 1
 700 200 l 1
 700 -0 l 1
 600 -0 l 1
 600 200 l 1
300 200 m 1
 500 200 l 1
 500 -0 l 1
 300 -0 l 1
 300 200 l 1
1100 200 m 1
 1300 200 l 1
 1300 -0 l 1
 1100 -0 l 1
 1100 200 l 1
1400 200 m 1
 1600 200 l 1
 1600 -0 l 1
 1400 -0 l 1
 1400 200 l 1
800 200 m 1
 1000 200 l 1
 1000 -0 l 1
 800 -0 l 1
 800 200 l 1
1900 200 m 1
 2100 200 l 1
 2100 -0 l 1
 1900 -0 l 1
 1900 200 l 1
1700 200 m 1
 1800 200 l 1
 1800 -0 l 1
 1700 -0 l 1
 1700 200 l 1
EndSplineSet
Validated: 1
EndChar

StartChar: dollar
Encoding: 36 36 69
Width: 2300
VWidth: 0
Flags: HW
LayerCount: 2
Back
Fore
SplineSet
0 200 m 1
 200 200 l 1
 200 -0 l 1
 0 -0 l 1
 0 200 l 1
600 200 m 1
 700 200 l 1
 700 -0 l 1
 600 -0 l 1
 600 200 l 1
300 200 m 1
 500 200 l 1
 500 -0 l 1
 300 -0 l 1
 300 200 l 1
1100 200 m 1
 1300 200 l 1
 1300 -0 l 1
 1100 -0 l 1
 1100 200 l 1
800 200 m 1
 1000 200 l 1
 1000 -0 l 1
 800 -0 l 1
 800 200 l 1
1600 200 m 1
 1800 200 l 1
 1800 0 l 1
 1600 0 l 1
 1600 200 l 1
1400 200 m 1
 1500 200 l 1
 1500 0 l 1
 1400 0 l 1
 1400 200 l 1
1900 200 m 1
 2100 200 l 1
 2100 0 l 1
 1900 0 l 1
 1900 200 l 1
EndSplineSet
Validated: 1
EndChar

StartChar: percent
Encoding: 37 37 70
Width: 2200
VWidth: 0
Flags: HW
LayerCount: 2
Back
Fore
SplineSet
0 200 m 1
 200 200 l 1
 200 -0 l 1
 0 -0 l 1
 0 200 l 1
600 200 m 1
 700 200 l 1
 700 -0 l 1
 600 -0 l 1
 600 200 l 1
300 200 m 1
 500 200 l 1
 500 -0 l 1
 300 -0 l 1
 300 200 l 1
1100 200 m 1
 1300 200 l 1
 1300 -0 l 1
 1100 -0 l 1
 1100 200 l 1
800 200 m 1
 1000 200 l 1
 1000 -0 l 1
 800 -0 l 1
 800 200 l 1
1600 200 m 1
 1800 200 l 1
 1800 0 l 1
 1600 0 l 1
 1600 200 l 1
1400 200 m 1
 1500 200 l 1
 1500 0 l 1
 1400 0 l 1
 1400 200 l 1
1900 200 m 1
 2000 200 l 1
 2000 -0 l 1
 1900 -0 l 1
 1900 200 l 1
EndSplineSet
Validated: 1
EndChar

StartChar: quotesingle
Encoding: 39 39 71
Width: 2100
VWidth: 0
Flags: HW
LayerCount: 2
Back
Fore
SplineSet
0 200 m 1
 200 200 l 1
 200 -0 l 1
 0 -0 l 1
 0 200 l 1
600 200 m 1
 700 200 l 1
 700 -0 l 1
 600 -0 l 1
 600 200 l 1
300 200 m 1
 500 200 l 1
 500 -0 l 1
 300 -0 l 1
 300 200 l 1
1100 200 m 1
 1300 200 l 1
 1300 -0 l 1
 1100 -0 l 1
 1100 200 l 1
800 200 m 1
 1000 200 l 1
 1000 -0 l 1
 800 -0 l 1
 800 200 l 1
1400 200 m 1
 1500 200 l 1
 1500 0 l 1
 1400 0 l 1
 1400 200 l 1
1600 200 m 1
 1700 200 l 1
 1700 -0 l 1
 1600 -0 l 1
 1600 200 l 1
1800 200 m 1
 1900 200 l 1
 1900 -0 l 1
 1800 -0 l 1
 1800 200 l 1
EndSplineSet
Validated: 1
EndChar

StartChar: parenleft
Encoding: 40 40 72
Width: 2300
VWidth: 0
Flags: HW
LayerCount: 2
Back
Fore
SplineSet
0 200 m 1
 200 200 l 1
 200 -0 l 1
 0 -0 l 1
 0 200 l 1
600 200 m 1
 700 200 l 1
 700 -0 l 1
 600 -0 l 1
 600 200 l 1
300 200 m 1
 500 200 l 1
 500 -0 l 1
 300 -0 l 1
 300 200 l 1
800 200 m 1
 1000 200 l 1
 1000 -0 l 1
 800 -0 l 1
 800 200 l 1
1300 200 m 1
 1500 200 l 1
 1500 -0 l 1
 1300 -0 l 1
 1300 200 l 1
1100 200 m 1
 1200 200 l 1
 1200 -0 l 1
 1100 -0 l 1
 1100 200 l 1
1600 200 m 1
 1800 200 l 1
 1800 -0 l 1
 1600 -0 l 1
 1600 200 l 1
1900 200 m 1
 2100 200 l 1
 2100 -0 l 1
 1900 -0 l 1
 1900 200 l 1
EndSplineSet
Validated: 1
EndChar

StartChar: parenright
Encoding: 41 41 73
Width: 2200
VWidth: 0
Flags: HW
LayerCount: 2
Back
Fore
SplineSet
0 200 m 1
 200 200 l 1
 200 -0 l 1
 0 -0 l 1
 0 200 l 1
600 200 m 1
 700 200 l 1
 700 -0 l 1
 600 -0 l 1
 600 200 l 1
300 200 m 1
 500 200 l 1
 500 -0 l 1
 300 -0 l 1
 300 200 l 1
800 200 m 1
 1000 200 l 1
 1000 -0 l 1
 800 -0 l 1
 800 200 l 1
1300 200 m 1
 1500 200 l 1
 1500 -0 l 1
 1300 -0 l 1
 1300 200 l 1
1100 200 m 1
 1200 200 l 1
 1200 -0 l 1
 1100 -0 l 1
 1100 200 l 1
1600 200 m 1
 1800 200 l 1
 1800 -0 l 1
 1600 -0 l 1
 1600 200 l 1
1900 200 m 1
 2000 200 l 1
 2000 -0 l 1
 1900 -0 l 1
 1900 200 l 1
EndSplineSet
Validated: 1
EndChar

StartChar: asterisk
Encoding: 42 42 74
Width: 2200
VWidth: 0
Flags: HW
LayerCount: 2
Back
Fore
SplineSet
0 200 m 1
 200 200 l 1
 200 -0 l 1
 0 -0 l 1
 0 200 l 1
600 200 m 1
 700 200 l 1
 700 -0 l 1
 600 -0 l 1
 600 200 l 1
300 200 m 1
 500 200 l 1
 500 -0 l 1
 300 -0 l 1
 300 200 l 1
800 200 m 1
 1000 200 l 1
 1000 -0 l 1
 800 -0 l 1
 800 200 l 1
1300 200 m 1
 1500 200 l 1
 1500 -0 l 1
 1300 -0 l 1
 1300 200 l 1
1100 200 m 1
 1200 200 l 1
 1200 -0 l 1
 1100 -0 l 1
 1100 200 l 1
1800 200 m 1
 2000 200 l 1
 2000 -0 l 1
 1800 -0 l 1
 1800 200 l 1
1600 200 m 1
 1700 200 l 1
 1700 -0 l 1
 1600 -0 l 1
 1600 200 l 1
EndSplineSet
Validated: 1
EndChar

StartChar: plus
Encoding: 43 43 75
Width: 2100
VWidth: 0
Flags: HW
LayerCount: 2
Back
Fore
SplineSet
0 200 m 1
 200 200 l 1
 200 -0 l 1
 0 -0 l 1
 0 200 l 1
600 200 m 1
 700 200 l 1
 700 -0 l 1
 600 -0 l 1
 600 200 l 1
300 200 m 1
 500 200 l 1
 500 -0 l 1
 300 -0 l 1
 300 200 l 1
800 200 m 1
 1000 200 l 1
 1000 -0 l 1
 800 -0 l 1
 800 200 l 1
1300 200 m 1
 1500 200 l 1
 1500 -0 l 1
 1300 -0 l 1
 1300 200 l 1
1100 200 m 1
 1200 200 l 1
 1200 -0 l 1
 1100 -0 l 1
 1100 200 l 1
1600 200 m 1
 1700 200 l 1
 1700 -0 l 1
 1600 -0 l 1
 1600 200 l 1
1800 200 m 1
 1900 200 l 1
 1900 -0 l 1
 1800 -0 l 1
 1800 200 l 1
EndSplineSet
Validated: 1
EndChar

StartChar: comma
Encoding: 44 44 76
Width: 2200
VWidth: 0
Flags: HW
LayerCount: 2
Back
Fore
SplineSet
0 200 m 1
 200 200 l 1
 200 -0 l 1
 0 -0 l 1
 0 200 l 1
600 200 m 1
 700 200 l 1
 700 -0 l 1
 600 -0 l 1
 600 200 l 1
300 200 m 1
 500 200 l 1
 500 -0 l 1
 300 -0 l 1
 300 200 l 1
800 200 m 1
 1000 200 l 1
 1000 -0 l 1
 800 -0 l 1
 800 200 l 1
1100 200 m 1
 1200 200 l 1
 1200 -0 l 1
 1100 -0 l 1
 1100 200 l 1
1500 200 m 1
 1700 200 l 1
 1700 -0 l 1
 1500 -0 l 1
 1500 200 l 1
1300 200 m 1
 1400 200 l 1
 1400 -0 l 1
 1300 -0 l 1
 1300 200 l 1
1800 200 m 1
 2000 200 l 1
 2000 -0 l 1
 1800 -0 l 1
 1800 200 l 1
EndSplineSet
Validated: 1
EndChar

StartChar: hyphen
Encoding: 45 45 77
Width: 2100
VWidth: 0
Flags: HW
LayerCount: 2
Back
Fore
SplineSet
0 200 m 1
 200 200 l 1
 200 -0 l 1
 0 -0 l 1
 0 200 l 1
600 200 m 1
 700 200 l 1
 700 -0 l 1
 600 -0 l 1
 600 200 l 1
300 200 m 1
 500 200 l 1
 500 -0 l 1
 300 -0 l 1
 300 200 l 1
800 200 m 1
 1000 200 l 1
 1000 -0 l 1
 800 -0 l 1
 800 200 l 1
1100 200 m 1
 1200 200 l 1
 1200 -0 l 1
 1100 -0 l 1
 1100 200 l 1
1500 200 m 1
 1700 200 l 1
 1700 -0 l 1
 1500 -0 l 1
 1500 200 l 1
1300 200 m 1
 1400 200 l 1
 1400 -0 l 1
 1300 -0 l 1
 1300 200 l 1
1800 200 m 1
 1900 200 l 1
 1900 -0 l 1
 1800 -0 l 1
 1800 200 l 1
EndSplineSet
Validated: 1
EndChar

StartChar: period
Encoding: 46 46 78
Width: 2100
VWidth: 0
Flags: HW
LayerCount: 2
Back
Fore
SplineSet
0 200 m 1
 200 200 l 1
 200 -0 l 1
 0 -0 l 1
 0 200 l 1
600 200 m 1
 700 200 l 1
 700 -0 l 1
 600 -0 l 1
 600 200 l 1
300 200 m 1
 500 200 l 1
 500 -0 l 1
 300 -0 l 1
 300 200 l 1
800 200 m 1
 1000 200 l 1
 1000 -0 l 1
 800 -0 l 1
 800 200 l 1
1100 200 m 1
 1200 200 l 1
 1200 -0 l 1
 1100 -0 l 1
 1100 200 l 1
1300 200 m 1
 1400 200 l 1
 1400 -0 l 1
 1300 -0 l 1
 1300 200 l 1
1700 200 m 1
 1900 200 l 1
 1900 -0 l 1
 1700 -0 l 1
 1700 200 l 1
1500 200 m 1
 1600 200 l 1
 1600 -0 l 1
 1500 -0 l 1
 1500 200 l 1
EndSplineSet
Validated: 1
EndChar

StartChar: slash
Encoding: 47 47 79
Width: 2000
VWidth: 0
Flags: HW
LayerCount: 2
Back
Fore
SplineSet
0 200 m 1
 200 200 l 1
 200 -0 l 1
 0 -0 l 1
 0 200 l 1
600 200 m 1
 700 200 l 1
 700 -0 l 1
 600 -0 l 1
 600 200 l 1
300 200 m 1
 500 200 l 1
 500 -0 l 1
 300 -0 l 1
 300 200 l 1
800 200 m 1
 1000 200 l 1
 1000 -0 l 1
 800 -0 l 1
 800 200 l 1
1100 200 m 1
 1200 200 l 1
 1200 -0 l 1
 1100 -0 l 1
 1100 200 l 1
1300 200 m 1
 1400 200 l 1
 1400 -0 l 1
 1300 -0 l 1
 1300 200 l 1
1500 200 m 1
 1600 200 l 1
 1600 -0 l 1
 1500 -0 l 1
 1500 200 l 1
1700 200 m 1
 1800 200 l 1
 1800 -0 l 1
 1700 -0 l 1
 1700 200 l 1
EndSplineSet
Validated: 1
EndChar

StartChar: colon
Encoding: 58 58 80
Width: 2100
VWidth: 0
Flags: HW
LayerCount: 2
Back
Fore
SplineSet
0 200 m 1
 200 200 l 1
 200 -0 l 1
 0 -0 l 1
 0 200 l 1
600 200 m 1
 700 200 l 1
 700 -0 l 1
 600 -0 l 1
 600 200 l 1
300 200 m 1
 500 200 l 1
 500 -0 l 1
 300 -0 l 1
 300 200 l 1
800 200 m 1
 900 200 l 1
 900 -0 l 1
 800 -0 l 1
 800 200 l 1
1000 200 m 1
 1100 200 l 1
 1100 -0 l 1
 1000 -0 l 1
 1000 200 l 1
1500 200 m 1
 1600 200 l 1
 1600 -0 l 1
 1500 -0 l 1
 1500 200 l 1
1200 200 m 1
 1400 200 l 1
 1400 -0 l 1
 1200 -0 l 1
 1200 200 l 1
1700 200 m 1
 1900 200 l 1
 1900 -0 l 1
 1700 -0 l 1
 1700 200 l 1
EndSplineSet
Validated: 1
EndChar

StartChar: semicolon
Encoding: 59 59 81
Width: 2000
VWidth: 0
Flags: HW
LayerCount: 2
Back
Fore
SplineSet
0 200 m 1
 200 200 l 1
 200 -0 l 1
 0 -0 l 1
 0 200 l 1
600 200 m 1
 700 200 l 1
 700 -0 l 1
 600 -0 l 1
 600 200 l 1
300 200 m 1
 500 200 l 1
 500 -0 l 1
 300 -0 l 1
 300 200 l 1
800 200 m 1
 900 200 l 1
 900 -0 l 1
 800 -0 l 1
 800 200 l 1
1000 200 m 1
 1100 200 l 1
 1100 -0 l 1
 1000 -0 l 1
 1000 200 l 1
1500 200 m 1
 1600 200 l 1
 1600 -0 l 1
 1500 -0 l 1
 1500 200 l 1
1200 200 m 1
 1400 200 l 1
 1400 -0 l 1
 1200 -0 l 1
 1200 200 l 1
1700 200 m 1
 1800 200 l 1
 1800 -0 l 1
 1700 -0 l 1
 1700 200 l 1
EndSplineSet
Validated: 1
EndChar

StartChar: less
Encoding: 60 60 82
Width: 2100
VWidth: 0
Flags: HW
LayerCount: 2
Back
Fore
SplineSet
0 200 m 1
 200 200 l 1
 200 -0 l 1
 0 -0 l 1
 0 200 l 1
600 200 m 1
 700 200 l 1
 700 -0 l 1
 600 -0 l 1
 600 200 l 1
300 200 m 1
 500 200 l 1
 500 -0 l 1
 300 -0 l 1
 300 200 l 1
800 200 m 1
 900 200 l 1
 900 -0 l 1
 800 -0 l 1
 800 200 l 1
1000 200 m 1
 1100 200 l 1
 1100 -0 l 1
 1000 -0 l 1
 1000 200 l 1
1400 200 m 1
 1600 200 l 1
 1600 -0 l 1
 1400 -0 l 1
 1400 200 l 1
1200 200 m 1
 1300 200 l 1
 1300 -0 l 1
 1200 -0 l 1
 1200 200 l 1
1700 200 m 1
 1900 200 l 1
 1900 -0 l 1
 1700 -0 l 1
 1700 200 l 1
EndSplineSet
Validated: 1
EndChar

StartChar: equal
Encoding: 61 61 83
Width: 2000
VWidth: 0
Flags: HW
LayerCount: 2
Back
Fore
SplineSet
0 200 m 1
 200 200 l 1
 200 -0 l 1
 0 -0 l 1
 0 200 l 1
600 200 m 1
 700 200 l 1
 700 -0 l 1
 600 -0 l 1
 600 200 l 1
300 200 m 1
 500 200 l 1
 500 -0 l 1
 300 -0 l 1
 300 200 l 1
800 200 m 1
 900 200 l 1
 900 -0 l 1
 800 -0 l 1
 800 200 l 1
1000 200 m 1
 1100 200 l 1
 1100 -0 l 1
 1000 -0 l 1
 1000 200 l 1
1400 200 m 1
 1600 200 l 1
 1600 -0 l 1
 1400 -0 l 1
 1400 200 l 1
1200 200 m 1
 1300 200 l 1
 1300 -0 l 1
 1200 -0 l 1
 1200 200 l 1
1700 200 m 1
 1800 200 l 1
 1800 -0 l 1
 1700 -0 l 1
 1700 200 l 1
EndSplineSet
Validated: 1
EndChar

StartChar: greater
Encoding: 62 62 84
Width: 2000
VWidth: 0
Flags: HW
LayerCount: 2
Back
Fore
SplineSet
0 200 m 1
 200 200 l 1
 200 -0 l 1
 0 -0 l 1
 0 200 l 1
600 200 m 1
 700 200 l 1
 700 -0 l 1
 600 -0 l 1
 600 200 l 1
300 200 m 1
 500 200 l 1
 500 -0 l 1
 300 -0 l 1
 300 200 l 1
800 200 m 1
 900 200 l 1
 900 -0 l 1
 800 -0 l 1
 800 200 l 1
1000 200 m 1
 1100 200 l 1
 1100 -0 l 1
 1000 -0 l 1
 1000 200 l 1
1600 200 m 1
 1800 200 l 1
 1800 -0 l 1
 1600 -0 l 1
 1600 200 l 1
1200 200 m 1
 1300 200 l 1
 1300 -0 l 1
 1200 -0 l 1
 1200 200 l 1
1400 200 m 1
 1500 200 l 1
 1500 -0 l 1
 1400 -0 l 1
 1400 200 l 1
EndSplineSet
Validated: 1
EndChar

StartChar: question
Encoding: 63 63 85
Width: 1900
VWidth: 0
Flags: HW
LayerCount: 2
Back
Fore
SplineSet
0 200 m 1
 200 200 l 1
 200 -0 l 1
 0 -0 l 1
 0 200 l 1
600 200 m 1
 700 200 l 1
 700 -0 l 1
 600 -0 l 1
 600 200 l 1
300 200 m 1
 500 200 l 1
 500 -0 l 1
 300 -0 l 1
 300 200 l 1
800 200 m 1
 900 200 l 1
 900 -0 l 1
 800 -0 l 1
 800 200 l 1
1000 200 m 1
 1100 200 l 1
 1100 -0 l 1
 1000 -0 l 1
 1000 200 l 1
1200 200 m 1
 1300 200 l 1
 1300 -0 l 1
 1200 -0 l 1
 1200 200 l 1
1400 200 m 1
 1500 200 l 1
 1500 -0 l 1
 1400 -0 l 1
 1400 200 l 1
1600 200 m 1
 1700 200 l 1
 1700 -0 l 1
 1600 -0 l 1
 1600 200 l 1
EndSplineSet
Validated: 1
EndChar

StartChar: at
Encoding: 64 64 86
Width: 2400
VWidth: 0
Flags: HW
LayerCount: 2
Back
Fore
SplineSet
0 200 m 1
 200 200 l 1
 200 -0 l 1
 0 -0 l 1
 0 200 l 1
500 200 m 1
 700 200 l 1
 700 -0 l 1
 500 -0 l 1
 500 200 l 1
300 200 m 1
 400 200 l 1
 400 -0 l 1
 300 -0 l 1
 300 200 l 1
800 200 m 1
 1000 200 l 1
 1000 -0 l 1
 800 -0 l 1
 800 200 l 1
1100 200 m 1
 1300 200 l 1
 1300 -0 l 1
 1100 -0 l 1
 1100 200 l 1
1400 200 m 1
 1600 200 l 1
 1600 -0 l 1
 1400 -0 l 1
 1400 200 l 1
1700 200 m 1
 1900 200 l 1
 1900 -0 l 1
 1700 -0 l 1
 1700 200 l 1
2000 200 m 1
 2200 200 l 1
 2200 -0 l 1
 2000 -0 l 1
 2000 200 l 1
EndSplineSet
Validated: 1
EndChar

StartChar: bracketleft
Encoding: 91 91 87
Width: 2000
VWidth: 0
Flags: HW
LayerCount: 2
Back
Fore
SplineSet
0 200 m 1
 200 200 l 1
 200 -0 l 1
 0 -0 l 1
 0 200 l 1
500 200 m 1
 700 200 l 1
 700 -0 l 1
 500 -0 l 1
 500 200 l 1
300 200 m 1
 400 200 l 1
 400 -0 l 1
 300 -0 l 1
 300 200 l 1
800 200 m 1
 900 200 l 1
 900 -0 l 1
 800 -0 l 1
 800 200 l 1
1200 200 m 1
 1400 200 l 1
 1400 0 l 1
 1200 0 l 1
 1200 200 l 1
1000 200 m 1
 1100 200 l 1
 1100 0 l 1
 1000 0 l 1
 1000 200 l 1
1500 200 m 1
 1600 200 l 1
 1600 -0 l 1
 1500 -0 l 1
 1500 200 l 1
1700 200 m 1
 1800 200 l 1
 1800 -0 l 1
 1700 -0 l 1
 1700 200 l 1
EndSplineSet
Validated: 1
EndChar

StartChar: backslash
Encoding: 92 92 88
Width: 2100
VWidth: 0
Flags: HW
LayerCount: 2
Back
Fore
SplineSet
0 200 m 1
 200 200 l 1
 200 -0 l 1
 0 -0 l 1
 0 200 l 1
500 200 m 1
 700 200 l 1
 700 -0 l 1
 500 -0 l 1
 500 200 l 1
300 200 m 1
 400 200 l 1
 400 -0 l 1
 300 -0 l 1
 300 200 l 1
800 200 m 1
 900 200 l 1
 900 -0 l 1
 800 -0 l 1
 800 200 l 1
1000 200 m 1
 1100 200 l 1
 1100 0 l 1
 1000 0 l 1
 1000 200 l 1
1400 200 m 1
 1600 200 l 1
 1600 -0 l 1
 1400 -0 l 1
 1400 200 l 1
1200 200 m 1
 1300 200 l 1
 1300 -0 l 1
 1200 -0 l 1
 1200 200 l 1
1700 200 m 1
 1900 200 l 1
 1900 -0 l 1
 1700 -0 l 1
 1700 200 l 1
EndSplineSet
Validated: 1
EndChar

StartChar: bracketright
Encoding: 93 93 89
Width: 2000
VWidth: 0
Flags: HW
LayerCount: 2
Back
Fore
SplineSet
0 200 m 1
 200 200 l 1
 200 -0 l 1
 0 -0 l 1
 0 200 l 1
500 200 m 1
 700 200 l 1
 700 -0 l 1
 500 -0 l 1
 500 200 l 1
300 200 m 1
 400 200 l 1
 400 -0 l 1
 300 -0 l 1
 300 200 l 1
800 200 m 1
 900 200 l 1
 900 -0 l 1
 800 -0 l 1
 800 200 l 1
1000 200 m 1
 1100 200 l 1
 1100 0 l 1
 1000 0 l 1
 1000 200 l 1
1400 200 m 1
 1600 200 l 1
 1600 -0 l 1
 1400 -0 l 1
 1400 200 l 1
1200 200 m 1
 1300 200 l 1
 1300 -0 l 1
 1200 -0 l 1
 1200 200 l 1
1700 200 m 1
 1800 200 l 1
 1800 -0 l 1
 1700 -0 l 1
 1700 200 l 1
EndSplineSet
Validated: 1
EndChar

StartChar: asciicircum
Encoding: 94 94 90
Width: 2000
VWidth: 0
Flags: HW
LayerCount: 2
Back
Fore
SplineSet
0 200 m 1
 200 200 l 1
 200 -0 l 1
 0 -0 l 1
 0 200 l 1
500 200 m 1
 700 200 l 1
 700 -0 l 1
 500 -0 l 1
 500 200 l 1
300 200 m 1
 400 200 l 1
 400 -0 l 1
 300 -0 l 1
 300 200 l 1
800 200 m 1
 900 200 l 1
 900 -0 l 1
 800 -0 l 1
 800 200 l 1
1000 200 m 1
 1100 200 l 1
 1100 0 l 1
 1000 0 l 1
 1000 200 l 1
1600 200 m 1
 1800 200 l 1
 1800 -0 l 1
 1600 -0 l 1
 1600 200 l 1
1200 200 m 1
 1300 200 l 1
 1300 -0 l 1
 1200 -0 l 1
 1200 200 l 1
1400 200 m 1
 1500 200 l 1
 1500 -0 l 1
 1400 -0 l 1
 1400 200 l 1
EndSplineSet
Validated: 1
EndChar

StartChar: underscore
Encoding: 95 95 91
Width: 1900
VWidth: 0
Flags: HW
LayerCount: 2
Back
Fore
SplineSet
0 200 m 1
 200 200 l 1
 200 -0 l 1
 0 -0 l 1
 0 200 l 1
500 200 m 1
 700 200 l 1
 700 -0 l 1
 500 -0 l 1
 500 200 l 1
300 200 m 1
 400 200 l 1
 400 -0 l 1
 300 -0 l 1
 300 200 l 1
800 200 m 1
 900 200 l 1
 900 -0 l 1
 800 -0 l 1
 800 200 l 1
1000 200 m 1
 1100 200 l 1
 1100 0 l 1
 1000 0 l 1
 1000 200 l 1
1200 200 m 1
 1300 200 l 1
 1300 -0 l 1
 1200 -0 l 1
 1200 200 l 1
1400 200 m 1
 1500 200 l 1
 1500 -0 l 1
 1400 -0 l 1
 1400 200 l 1
1600 200 m 1
 1700 200 l 1
 1700 -0 l 1
 1600 -0 l 1
 1600 200 l 1
EndSplineSet
Validated: 1
EndChar

StartChar: grave
Encoding: 96 96 92
Width: 2300
VWidth: 0
Flags: HW
LayerCount: 2
Back
Fore
SplineSet
0 200 m 1
 200 200 l 1
 200 -0 l 1
 0 -0 l 1
 0 200 l 1
300 200 m 1
 400 200 l 1
 400 -0 l 1
 300 -0 l 1
 300 200 l 1
700 200 m 1
 900 200 l 1
 900 -0 l 1
 700 -0 l 1
 700 200 l 1
500 200 m 1
 600 200 l 1
 600 -0 l 1
 500 -0 l 1
 500 200 l 1
1000 200 m 1
 1200 200 l 1
 1200 -0 l 1
 1000 -0 l 1
 1000 200 l 1
1300 200 m 1
 1500 200 l 1
 1500 -0 l 1
 1300 -0 l 1
 1300 200 l 1
1600 200 m 1
 1800 200 l 1
 1800 -0 l 1
 1600 -0 l 1
 1600 200 l 1
1900 200 m 1
 2100 200 l 1
 2100 -0 l 1
 1900 -0 l 1
 1900 200 l 1
EndSplineSet
Validated: 1
EndChar

StartChar: braceleft
Encoding: 123 123 93
Width: 1900
VWidth: 0
Flags: HW
LayerCount: 2
Back
Fore
SplineSet
0 200 m 1
 200 200 l 1
 200 -0 l 1
 0 -0 l 1
 0 200 l 1
300 200 m 1
 400 200 l 1
 400 -0 l 1
 300 -0 l 1
 300 200 l 1
500 200 m 1
 600 200 l 1
 600 -0 l 1
 500 -0 l 1
 500 200 l 1
700 200 m 1
 800 200 l 1
 800 -0 l 1
 700 -0 l 1
 700 200 l 1
900 200 m 1
 1000 200 l 1
 1000 -0 l 1
 900 -0 l 1
 900 200 l 1
1100 200 m 1
 1300 200 l 1
 1300 -0 l 1
 1100 -0 l 1
 1100 200 l 1
1400 200 m 1
 1500 200 l 1
 1500 -0 l 1
 1400 -0 l 1
 1400 200 l 1
1600 200 m 1
 1700 200 l 1
 1700 -0 l 1
 1600 -0 l 1
 1600 200 l 1
EndSplineSet
Validated: 1
EndChar

StartChar: bar
Encoding: 124 124 94
Width: 2000
VWidth: 0
Flags: HW
LayerCount: 2
Back
Fore
SplineSet
0 200 m 1
 200 200 l 1
 200 -0 l 1
 0 -0 l 1
 0 200 l 1
300 200 m 1
 400 200 l 1
 400 -0 l 1
 300 -0 l 1
 300 200 l 1
500 200 m 1
 600 200 l 1
 600 -0 l 1
 500 -0 l 1
 500 200 l 1
700 200 m 1
 800 200 l 1
 800 -0 l 1
 700 -0 l 1
 700 200 l 1
900 200 m 1
 1000 200 l 1
 1000 -0 l 1
 900 -0 l 1
 900 200 l 1
1300 200 m 1
 1500 200 l 1
 1500 -0 l 1
 1300 -0 l 1
 1300 200 l 1
1100 200 m 1
 1200 200 l 1
 1200 -0 l 1
 1100 -0 l 1
 1100 200 l 1
1600 200 m 1
 1800 200 l 1
 1800 -0 l 1
 1600 -0 l 1
 1600 200 l 1
EndSplineSet
Validated: 1
EndChar

StartChar: braceright
Encoding: 125 125 95
Width: 1900
VWidth: 0
Flags: HW
LayerCount: 2
Back
Fore
SplineSet
0 200 m 1
 200 200 l 1
 200 -0 l 1
 0 -0 l 1
 0 200 l 1
300 200 m 1
 400 200 l 1
 400 -0 l 1
 300 -0 l 1
 300 200 l 1
500 200 m 1
 600 200 l 1
 600 -0 l 1
 500 -0 l 1
 500 200 l 1
700 200 m 1
 800 200 l 1
 800 -0 l 1
 700 -0 l 1
 700 200 l 1
900 200 m 1
 1000 200 l 1
 1000 -0 l 1
 900 -0 l 1
 900 200 l 1
1300 200 m 1
 1500 200 l 1
 1500 -0 l 1
 1300 -0 l 1
 1300 200 l 1
1100 200 m 1
 1200 200 l 1
 1200 -0 l 1
 1100 -0 l 1
 1100 200 l 1
1600 200 m 1
 1700 200 l 1
 1700 -0 l 1
 1600 -0 l 1
 1600 200 l 1
EndSplineSet
Validated: 1
EndChar

StartChar: asciitilde
Encoding: 126 126 96
Width: 1900
VWidth: 0
Flags: HW
LayerCount: 2
Back
Fore
SplineSet
0 200 m 1
 200 200 l 1
 200 -0 l 1
 0 -0 l 1
 0 200 l 1
300 200 m 1
 400 200 l 1
 400 -0 l 1
 300 -0 l 1
 300 200 l 1
500 200 m 1
 600 200 l 1
 600 -0 l 1
 500 -0 l 1
 500 200 l 1
700 200 m 1
 800 200 l 1
 800 -0 l 1
 700 -0 l 1
 700 200 l 1
900 200 m 1
 1000 200 l 1
 1000 -0 l 1
 900 -0 l 1
 900 200 l 1
1500 200 m 1
 1700 200 l 1
 1700 -0 l 1
 1500 -0 l 1
 1500 200 l 1
1100 200 m 1
 1200 200 l 1
 1200 -0 l 1
 1100 -0 l 1
 1100 200 l 1
1300 200 m 1
 1400 200 l 1
 1400 -0 l 1
 1300 -0 l 1
 1300 200 l 1
EndSplineSet
Validated: 1
EndChar

StartChar: quotedblleft
Encoding: 8220 8220 97
Width: 2300
VWidth: 0
Flags: HW
LayerCount: 2
Back
Fore
SplineSet
0 200 m 1
 200 200 l 1
 200 -0 l 1
 0 -0 l 1
 0 200 l 1
600 200 m 1
 700 200 l 1
 700 -0 l 1
 600 -0 l 1
 600 200 l 1
300 200 m 1
 500 200 l 1
 500 -0 l 1
 300 -0 l 1
 300 200 l 1
1100 200 m 1
 1300 200 l 1
 1300 -0 l 1
 1100 -0 l 1
 1100 200 l 1
1400 200 m 1
 1600 200 l 1
 1600 -0 l 1
 1400 -0 l 1
 1400 200 l 1
800 200 m 1
 1000 200 l 1
 1000 -0 l 1
 800 -0 l 1
 800 200 l 1
1900 200 m 1
 2100 200 l 1
 2100 -0 l 1
 1900 -0 l 1
 1900 200 l 1
1700 200 m 1
 1800 200 l 1
 1800 -0 l 1
 1700 -0 l 1
 1700 200 l 1
EndSplineSet
Validated: 1
EndChar

StartChar: quotedblright
Encoding: 8221 8221 98
Width: 2300
VWidth: 0
Flags: HW
LayerCount: 2
Back
Fore
SplineSet
0 200 m 1
 200 200 l 1
 200 -0 l 1
 0 -0 l 1
 0 200 l 1
600 200 m 1
 700 200 l 1
 700 -0 l 1
 600 -0 l 1
 600 200 l 1
300 200 m 1
 500 200 l 1
 500 -0 l 1
 300 -0 l 1
 300 200 l 1
1100 200 m 1
 1300 200 l 1
 1300 -0 l 1
 1100 -0 l 1
 1100 200 l 1
1400 200 m 1
 1600 200 l 1
 1600 -0 l 1
 1400 -0 l 1
 1400 200 l 1
800 200 m 1
 1000 200 l 1
 1000 -0 l 1
 800 -0 l 1
 800 200 l 1
1900 200 m 1
 2100 200 l 1
 2100 -0 l 1
 1900 -0 l 1
 1900 200 l 1
1700 200 m 1
 1800 200 l 1
 1800 -0 l 1
 1700 -0 l 1
 1700 200 l 1
EndSplineSet
Validated: 1
EndChar

StartChar: quotedblbase
Encoding: 8222 8222 99
Width: 2300
VWidth: 0
Flags: HW
LayerCount: 2
Back
Fore
SplineSet
0 200 m 1
 200 200 l 1
 200 -0 l 1
 0 -0 l 1
 0 200 l 1
600 200 m 1
 700 200 l 1
 700 -0 l 1
 600 -0 l 1
 600 200 l 1
300 200 m 1
 500 200 l 1
 500 -0 l 1
 300 -0 l 1
 300 200 l 1
1100 200 m 1
 1300 200 l 1
 1300 -0 l 1
 1100 -0 l 1
 1100 200 l 1
1400 200 m 1
 1600 200 l 1
 1600 -0 l 1
 1400 -0 l 1
 1400 200 l 1
800 200 m 1
 1000 200 l 1
 1000 -0 l 1
 800 -0 l 1
 800 200 l 1
1900 200 m 1
 2100 200 l 1
 2100 -0 l 1
 1900 -0 l 1
 1900 200 l 1
1700 200 m 1
 1800 200 l 1
 1800 -0 l 1
 1700 -0 l 1
 1700 200 l 1
EndSplineSet
Validated: 1
EndChar

StartChar: uni201F
Encoding: 8223 8223 100
Width: 2300
VWidth: 0
Flags: HW
LayerCount: 2
Back
Fore
SplineSet
0 200 m 1
 200 200 l 1
 200 -0 l 1
 0 -0 l 1
 0 200 l 1
600 200 m 1
 700 200 l 1
 700 -0 l 1
 600 -0 l 1
 600 200 l 1
300 200 m 1
 500 200 l 1
 500 -0 l 1
 300 -0 l 1
 300 200 l 1
1100 200 m 1
 1300 200 l 1
 1300 -0 l 1
 1100 -0 l 1
 1100 200 l 1
1400 200 m 1
 1600 200 l 1
 1600 -0 l 1
 1400 -0 l 1
 1400 200 l 1
800 200 m 1
 1000 200 l 1
 1000 -0 l 1
 800 -0 l 1
 800 200 l 1
1900 200 m 1
 2100 200 l 1
 2100 -0 l 1
 1900 -0 l 1
 1900 200 l 1
1700 200 m 1
 1800 200 l 1
 1800 -0 l 1
 1700 -0 l 1
 1700 200 l 1
EndSplineSet
Validated: 1
EndChar

StartChar: quoteleft
Encoding: 8216 8216 101
Width: 2100
VWidth: 0
Flags: HW
LayerCount: 2
Back
Fore
SplineSet
0 200 m 1
 200 200 l 1
 200 -0 l 1
 0 -0 l 1
 0 200 l 1
600 200 m 1
 700 200 l 1
 700 -0 l 1
 600 -0 l 1
 600 200 l 1
300 200 m 1
 500 200 l 1
 500 -0 l 1
 300 -0 l 1
 300 200 l 1
1100 200 m 1
 1300 200 l 1
 1300 -0 l 1
 1100 -0 l 1
 1100 200 l 1
800 200 m 1
 1000 200 l 1
 1000 -0 l 1
 800 -0 l 1
 800 200 l 1
1400 200 m 1
 1500 200 l 1
 1500 0 l 1
 1400 0 l 1
 1400 200 l 1
1600 200 m 1
 1700 200 l 1
 1700 -0 l 1
 1600 -0 l 1
 1600 200 l 1
1800 200 m 1
 1900 200 l 1
 1900 -0 l 1
 1800 -0 l 1
 1800 200 l 1
EndSplineSet
Validated: 1
EndChar

StartChar: quoteright
Encoding: 8217 8217 102
Width: 2100
VWidth: 0
Flags: HW
LayerCount: 2
Back
Fore
SplineSet
0 200 m 1
 200 200 l 1
 200 -0 l 1
 0 -0 l 1
 0 200 l 1
600 200 m 1
 700 200 l 1
 700 -0 l 1
 600 -0 l 1
 600 200 l 1
300 200 m 1
 500 200 l 1
 500 -0 l 1
 300 -0 l 1
 300 200 l 1
1100 200 m 1
 1300 200 l 1
 1300 -0 l 1
 1100 -0 l 1
 1100 200 l 1
800 200 m 1
 1000 200 l 1
 1000 -0 l 1
 800 -0 l 1
 800 200 l 1
1400 200 m 1
 1500 200 l 1
 1500 0 l 1
 1400 0 l 1
 1400 200 l 1
1600 200 m 1
 1700 200 l 1
 1700 -0 l 1
 1600 -0 l 1
 1600 200 l 1
1800 200 m 1
 1900 200 l 1
 1900 -0 l 1
 1800 -0 l 1
 1800 200 l 1
EndSplineSet
Validated: 1
EndChar

StartChar: quotesinglbase
Encoding: 8218 8218 103
Width: 2100
VWidth: 0
Flags: HW
LayerCount: 2
Back
Fore
SplineSet
0 200 m 1
 200 200 l 1
 200 -0 l 1
 0 -0 l 1
 0 200 l 1
600 200 m 1
 700 200 l 1
 700 -0 l 1
 600 -0 l 1
 600 200 l 1
300 200 m 1
 500 200 l 1
 500 -0 l 1
 300 -0 l 1
 300 200 l 1
1100 200 m 1
 1300 200 l 1
 1300 -0 l 1
 1100 -0 l 1
 1100 200 l 1
800 200 m 1
 1000 200 l 1
 1000 -0 l 1
 800 -0 l 1
 800 200 l 1
1400 200 m 1
 1500 200 l 1
 1500 0 l 1
 1400 0 l 1
 1400 200 l 1
1600 200 m 1
 1700 200 l 1
 1700 -0 l 1
 1600 -0 l 1
 1600 200 l 1
1800 200 m 1
 1900 200 l 1
 1900 -0 l 1
 1800 -0 l 1
 1800 200 l 1
EndSplineSet
Validated: 1
EndChar

StartChar: quotereversed
Encoding: 8219 8219 104
Width: 2100
VWidth: 0
Flags: HW
LayerCount: 2
Back
Fore
SplineSet
0 200 m 1
 200 200 l 1
 200 -0 l 1
 0 -0 l 1
 0 200 l 1
600 200 m 1
 700 200 l 1
 700 -0 l 1
 600 -0 l 1
 600 200 l 1
300 200 m 1
 500 200 l 1
 500 -0 l 1
 300 -0 l 1
 300 200 l 1
1100 200 m 1
 1300 200 l 1
 1300 -0 l 1
 1100 -0 l 1
 1100 200 l 1
800 200 m 1
 1000 200 l 1
 1000 -0 l 1
 800 -0 l 1
 800 200 l 1
1400 200 m 1
 1500 200 l 1
 1500 0 l 1
 1400 0 l 1
 1400 200 l 1
1600 200 m 1
 1700 200 l 1
 1700 -0 l 1
 1600 -0 l 1
 1600 200 l 1
1800 200 m 1
 1900 200 l 1
 1900 -0 l 1
 1800 -0 l 1
 1800 200 l 1
EndSplineSet
Validated: 1
EndChar
